<svg xmlns="http://www.w3.org/2000/svg" xmlns:xlink="http://www.w3.org/1999/xlink" width="120" zoomAndPan="magnify" viewBox="0 0 90 89.999999" height="120" preserveAspectRatio="xMidYMid meet" version="1.0"><defs><g/></defs><g fill="#000000" fill-opacity="1"><g transform="translate(4.201172, 43.900001)"><g><path d="M 0.375 0 L 0.375 -3.015625 L 0.6875 -3.015625 L 0.6875 -1.84375 L 0.734375 -1.84375 C 0.890625 -2.082031 1.113281 -2.203125 1.40625 -2.203125 C 1.664062 -2.203125 1.851562 -2.132812 1.96875 -2 C 2.082031 -1.863281 2.140625 -1.660156 2.140625 -1.390625 L 2.140625 0 L 1.828125 0 L 1.828125 -1.375 C 1.828125 -1.507812 1.804688 -1.613281 1.765625 -1.6875 C 1.734375 -1.769531 1.679688 -1.828125 1.609375 -1.859375 C 1.546875 -1.898438 1.457031 -1.921875 1.34375 -1.921875 C 1.144531 -1.921875 0.984375 -1.859375 0.859375 -1.734375 C 0.742188 -1.609375 0.6875 -1.398438 0.6875 -1.109375 L 0.6875 0 Z M 0.375 0 "/></g></g></g><g fill="#000000" fill-opacity="1"><g transform="translate(6.679218, 43.900001)"><g><path d="M 2.046875 -1 L 0.578125 -1 C 0.585938 -0.738281 0.648438 -0.546875 0.765625 -0.421875 C 0.878906 -0.304688 1.035156 -0.25 1.234375 -0.25 C 1.390625 -0.25 1.515625 -0.273438 1.609375 -0.328125 C 1.703125 -0.378906 1.773438 -0.460938 1.828125 -0.578125 L 1.875 -0.578125 L 2.078125 -0.46875 C 2.015625 -0.3125 1.914062 -0.1875 1.78125 -0.09375 C 1.644531 0 1.460938 0.046875 1.234375 0.046875 C 1.023438 0.046875 0.847656 0.00390625 0.703125 -0.078125 C 0.554688 -0.160156 0.441406 -0.285156 0.359375 -0.453125 C 0.273438 -0.617188 0.234375 -0.828125 0.234375 -1.078125 C 0.234375 -1.316406 0.273438 -1.519531 0.359375 -1.6875 C 0.453125 -1.863281 0.570312 -1.992188 0.71875 -2.078125 C 0.863281 -2.160156 1.03125 -2.203125 1.21875 -2.203125 C 1.5 -2.203125 1.710938 -2.125 1.859375 -1.96875 C 2.015625 -1.8125 2.097656 -1.578125 2.109375 -1.265625 C 2.109375 -1.148438 2.101562 -1.070312 2.09375 -1.03125 Z M 1.78125 -1.265625 C 1.78125 -1.492188 1.726562 -1.660156 1.625 -1.765625 C 1.53125 -1.867188 1.394531 -1.921875 1.21875 -1.921875 C 1.03125 -1.921875 0.878906 -1.867188 0.765625 -1.765625 C 0.660156 -1.660156 0.597656 -1.492188 0.578125 -1.265625 Z M 1.78125 -1.265625 "/></g></g></g><g fill="#000000" fill-opacity="1"><g transform="translate(8.97385, 43.900001)"><g><path d="M 0.859375 0.046875 C 0.703125 0.046875 0.582031 0.00390625 0.5 -0.078125 C 0.414062 -0.171875 0.375 -0.304688 0.375 -0.484375 L 0.375 -3.015625 L 0.6875 -3.015625 L 0.6875 -0.5 C 0.6875 -0.40625 0.703125 -0.335938 0.734375 -0.296875 C 0.773438 -0.265625 0.832031 -0.25 0.90625 -0.25 C 0.945312 -0.25 0.988281 -0.253906 1.03125 -0.265625 L 1.0625 -0.265625 L 1.09375 -0.015625 C 1.070312 0.00390625 1.039062 0.0195312 1 0.03125 C 0.957031 0.0390625 0.910156 0.046875 0.859375 0.046875 Z M 0.859375 0.046875 "/></g></g></g><g fill="#000000" fill-opacity="1"><g transform="translate(10.144581, 43.900001)"><g><path d="M 0.859375 0.046875 C 0.703125 0.046875 0.582031 0.00390625 0.5 -0.078125 C 0.414062 -0.171875 0.375 -0.304688 0.375 -0.484375 L 0.375 -3.015625 L 0.6875 -3.015625 L 0.6875 -0.5 C 0.6875 -0.40625 0.703125 -0.335938 0.734375 -0.296875 C 0.773438 -0.265625 0.832031 -0.25 0.90625 -0.25 C 0.945312 -0.25 0.988281 -0.253906 1.03125 -0.265625 L 1.0625 -0.265625 L 1.09375 -0.015625 C 1.070312 0.00390625 1.039062 0.0195312 1 0.03125 C 0.957031 0.0390625 0.910156 0.046875 0.859375 0.046875 Z M 0.859375 0.046875 "/></g></g></g><g fill="#000000" fill-opacity="1"><g transform="translate(11.315311, 43.900001)"><g><path d="M 1.234375 0.046875 C 1.035156 0.046875 0.859375 0.00390625 0.703125 -0.078125 C 0.554688 -0.171875 0.441406 -0.300781 0.359375 -0.46875 C 0.273438 -0.632812 0.234375 -0.835938 0.234375 -1.078125 C 0.234375 -1.316406 0.273438 -1.519531 0.359375 -1.6875 C 0.441406 -1.851562 0.554688 -1.976562 0.703125 -2.0625 C 0.859375 -2.15625 1.035156 -2.203125 1.234375 -2.203125 C 1.441406 -2.203125 1.617188 -2.15625 1.765625 -2.0625 C 1.921875 -1.976562 2.035156 -1.851562 2.109375 -1.6875 C 2.191406 -1.519531 2.234375 -1.316406 2.234375 -1.078125 C 2.234375 -0.835938 2.191406 -0.632812 2.109375 -0.46875 C 2.035156 -0.300781 1.921875 -0.171875 1.765625 -0.078125 C 1.617188 0.00390625 1.441406 0.046875 1.234375 0.046875 Z M 1.234375 -0.25 C 1.453125 -0.25 1.617188 -0.316406 1.734375 -0.453125 C 1.847656 -0.585938 1.90625 -0.796875 1.90625 -1.078125 C 1.90625 -1.359375 1.847656 -1.566406 1.734375 -1.703125 C 1.617188 -1.835938 1.453125 -1.90625 1.234375 -1.90625 C 1.023438 -1.90625 0.863281 -1.835938 0.75 -1.703125 C 0.632812 -1.566406 0.578125 -1.359375 0.578125 -1.078125 C 0.578125 -0.796875 0.632812 -0.585938 0.75 -0.453125 C 0.863281 -0.316406 1.023438 -0.25 1.234375 -0.25 Z M 1.234375 -0.25 "/></g></g></g><path fill="#ffb500" d="M 90 45 C 90 46.472656 89.929688 47.945312 89.785156 49.410156 C 89.640625 50.878906 89.421875 52.332031 89.136719 53.777344 C 88.847656 55.222656 88.488281 56.652344 88.0625 58.0625 C 87.632812 59.472656 87.136719 60.859375 86.574219 62.222656 C 86.011719 63.582031 85.382812 64.914062 84.6875 66.210938 C 83.992188 67.511719 83.234375 68.773438 82.417969 70 C 81.597656 71.226562 80.71875 72.410156 79.785156 73.546875 C 78.851562 74.6875 77.863281 75.777344 76.820312 76.820312 C 75.777344 77.863281 74.6875 78.851562 73.546875 79.785156 C 72.410156 80.71875 71.226562 81.597656 70 82.417969 C 68.773438 83.234375 67.511719 83.992188 66.210938 84.6875 C 64.914062 85.382812 63.582031 86.011719 62.222656 86.574219 C 60.859375 87.136719 59.472656 87.632812 58.0625 88.0625 C 56.652344 88.488281 55.222656 88.847656 53.777344 89.136719 C 52.332031 89.421875 50.878906 89.640625 49.410156 89.785156 C 47.945312 89.929688 46.472656 90 45 90 C 43.527344 90 42.054688 89.929688 40.589844 89.785156 C 39.121094 89.640625 37.667969 89.421875 36.222656 89.136719 C 34.777344 88.847656 33.347656 88.488281 31.9375 88.0625 C 30.527344 87.632812 29.140625 87.136719 27.777344 86.574219 C 26.417969 86.011719 25.085938 85.382812 23.789062 84.6875 C 22.488281 83.992188 21.226562 83.234375 20 82.417969 C 18.773438 81.597656 17.589844 80.71875 16.453125 79.785156 C 15.3125 78.851562 14.222656 77.863281 13.179688 76.820312 C 12.136719 75.777344 11.148438 74.6875 10.214844 73.546875 C 9.28125 72.410156 8.402344 71.226562 7.582031 70 C 6.765625 68.773438 6.007812 67.511719 5.3125 66.210938 C 4.617188 64.914062 3.988281 63.582031 3.425781 62.222656 C 2.863281 60.859375 2.367188 59.472656 1.9375 58.0625 C 1.511719 56.652344 1.152344 55.222656 0.863281 53.777344 C 0.578125 52.332031 0.359375 50.878906 0.214844 49.410156 C 0.0703125 47.945312 0 46.472656 0 45 C 0 43.527344 0.0703125 42.054688 0.214844 40.589844 C 0.359375 39.121094 0.578125 37.667969 0.863281 36.222656 C 1.152344 34.777344 1.511719 33.347656 1.9375 31.9375 C 2.367188 30.527344 2.863281 29.140625 3.425781 27.777344 C 3.988281 26.417969 4.617188 25.085938 5.3125 23.789062 C 6.007812 22.488281 6.765625 21.226562 7.582031 20 C 8.402344 18.773438 9.28125 17.589844 10.214844 16.453125 C 11.148438 15.3125 12.136719 14.222656 13.179688 13.179688 C 14.222656 12.136719 15.3125 11.148438 16.453125 10.214844 C 17.589844 9.28125 18.773438 8.402344 20 7.582031 C 21.226562 6.765625 22.488281 6.007812 23.789062 5.3125 C 25.085938 4.617188 26.417969 3.988281 27.777344 3.425781 C 29.140625 2.863281 30.527344 2.367188 31.9375 1.9375 C 33.347656 1.511719 34.777344 1.152344 36.222656 0.863281 C 37.667969 0.578125 39.121094 0.359375 40.589844 0.214844 C 42.054688 0.0703125 43.527344 0 45 0 C 46.472656 0 47.945312 0.0703125 49.410156 0.214844 C 50.878906 0.359375 52.332031 0.578125 53.777344 0.863281 C 55.222656 1.152344 56.652344 1.511719 58.0625 1.9375 C 59.472656 2.367188 60.859375 2.863281 62.222656 3.425781 C 63.582031 3.988281 64.914062 4.617188 66.210938 5.3125 C 67.511719 6.007812 68.773438 6.765625 70 7.582031 C 71.226562 8.402344 72.410156 9.28125 73.546875 10.214844 C 74.6875 11.148438 75.777344 12.136719 76.820312 13.179688 C 77.863281 14.222656 78.851562 15.3125 79.785156 16.453125 C 80.71875 17.589844 81.597656 18.773438 82.417969 20 C 83.234375 21.226562 83.992188 22.488281 84.6875 23.789062 C 85.382812 25.085938 86.011719 26.417969 86.574219 27.777344 C 87.136719 29.140625 87.632812 30.527344 88.0625 31.9375 C 88.488281 33.347656 88.847656 34.777344 89.136719 36.222656 C 89.421875 37.667969 89.640625 39.121094 89.785156 40.589844 C 89.929688 42.054688 90 43.527344 90 45 Z M 90 45 " fill-opacity="1" fill-rule="nonzero"/><path fill="#fefefe" d="M 62.554688 71.601562 L 27.445312 71.601562 C 27.277344 71.601562 27.109375 71.535156 27.007812 71.433594 L 16.40625 61.675781 C 16.273438 61.542969 16.203125 61.371094 16.203125 61.171875 L 16.203125 28.964844 C 16.203125 28.761719 16.273438 28.59375 16.40625 28.457031 L 26.871094 18.601562 C 27.007812 18.5 27.175781 18.433594 27.34375 18.433594 L 62.6875 18.433594 C 62.859375 18.433594 63.027344 18.5 63.128906 18.601562 L 73.59375 28.457031 C 73.726562 28.59375 73.828125 28.761719 73.828125 28.964844 L 73.828125 61.171875 C 73.828125 61.371094 73.726562 61.542969 73.59375 61.675781 L 63.027344 71.433594 C 62.890625 71.535156 62.722656 71.601562 62.554688 71.601562 Z M 61.070312 67.71875 L 28.964844 67.71875 C 28.796875 67.71875 28.628906 67.652344 28.492188 67.515625 L 20.324219 59.988281 C 20.152344 59.855469 20.085938 59.652344 20.085938 59.480469 L 20.085938 30.617188 C 20.085938 30.449219 20.152344 30.246094 20.289062 30.144531 L 28.425781 22.484375 C 28.558594 22.382812 28.726562 22.3125 28.898438 22.3125 L 61.136719 22.3125 C 61.304688 22.3125 61.472656 22.382812 61.609375 22.484375 L 69.710938 30.144531 C 69.847656 30.246094 69.949219 30.449219 69.949219 30.617188 L 69.949219 59.480469 C 69.949219 59.652344 69.847656 59.855469 69.710938 59.988281 L 61.507812 67.550781 C 61.371094 67.652344 61.238281 67.71875 61.070312 67.71875 Z M 29.234375 66.367188 L 60.800781 66.367188 L 68.597656 59.179688 L 68.597656 30.921875 L 60.867188 23.664062 L 29.167969 23.664062 L 21.4375 30.921875 L 21.4375 59.179688 Z M 44.964844 64.34375 C 44.765625 64.34375 44.59375 64.277344 44.492188 64.140625 L 32.476562 52.15625 C 32.375 52.023438 32.308594 51.851562 32.308594 51.683594 C 32.308594 51.480469 32.375 51.3125 32.476562 51.210938 L 36.019531 47.667969 C 36.289062 47.398438 36.730469 47.398438 36.964844 47.667969 L 44.964844 55.632812 L 52.933594 47.667969 C 53.167969 47.398438 53.609375 47.398438 53.878906 47.667969 L 57.421875 51.210938 C 57.660156 51.449219 57.660156 51.886719 57.421875 52.15625 L 45.4375 64.140625 C 45.304688 64.277344 45.136719 64.34375 44.964844 64.34375 Z M 53.40625 42.570312 C 53.238281 42.570312 53.066406 42.5 52.933594 42.367188 L 44.964844 34.398438 L 37 42.367188 C 36.730469 42.636719 36.289062 42.636719 36.019531 42.367188 L 32.507812 38.820312 C 32.375 38.6875 32.308594 38.519531 32.308594 38.347656 C 32.308594 38.179688 32.375 38.011719 32.507812 37.878906 L 44.492188 25.894531 C 44.730469 25.621094 45.167969 25.621094 45.4375 25.894531 L 57.421875 37.878906 C 57.691406 38.148438 57.691406 38.550781 57.421875 38.820312 L 53.878906 42.367188 C 53.742188 42.5 53.574219 42.570312 53.40625 42.570312 Z M 45.335938 49.625 C 45.167969 49.625 45 49.558594 44.863281 49.421875 L 40.542969 45.101562 C 40.410156 44.964844 40.339844 44.796875 40.339844 44.628906 C 40.339844 44.425781 40.410156 44.257812 40.542969 44.15625 L 44.089844 40.613281 C 44.359375 40.339844 44.765625 40.339844 45.035156 40.613281 L 49.355469 44.933594 C 49.488281 45.066406 49.558594 45.234375 49.558594 45.40625 C 49.558594 45.574219 49.488281 45.742188 49.355469 45.878906 L 45.84375 49.421875 C 45.675781 49.558594 45.507812 49.625 45.335938 49.625 Z M 60.328125 49.625 C 60.15625 49.625 59.988281 49.558594 59.855469 49.421875 L 55.53125 45.101562 C 55.261719 44.832031 55.261719 44.390625 55.53125 44.15625 L 59.078125 40.613281 C 59.347656 40.339844 59.753906 40.339844 60.023438 40.613281 L 64.34375 44.933594 C 64.480469 45.066406 64.546875 45.234375 64.546875 45.40625 C 64.546875 45.574219 64.480469 45.742188 64.34375 45.878906 L 60.832031 49.421875 C 60.699219 49.558594 60.527344 49.625 60.328125 49.625 Z M 29.671875 49.625 C 29.503906 49.625 29.335938 49.558594 29.199219 49.421875 L 25.65625 45.878906 C 25.554688 45.742188 25.453125 45.574219 25.453125 45.40625 C 25.453125 45.234375 25.554688 45.066406 25.65625 44.933594 L 29.976562 40.613281 C 30.246094 40.339844 30.6875 40.339844 30.957031 40.613281 L 34.46875 44.15625 C 34.601562 44.257812 34.667969 44.425781 34.667969 44.628906 C 34.667969 44.796875 34.601562 44.964844 34.46875 45.101562 L 30.144531 49.421875 C 30.011719 49.558594 29.84375 49.625 29.671875 49.625 Z M 29.671875 49.625 " fill-opacity="1" fill-rule="evenodd"/><path fill="#fefefe" d="M 55.972656 38.347656 L 44.964844 27.3125 L 33.925781 38.347656 L 36.492188 40.949219 L 44.492188 32.949219 C 44.730469 32.710938 45.167969 32.710938 45.4375 32.949219 L 53.40625 40.949219 Z M 55.972656 38.347656 " fill-opacity="1" fill-rule="evenodd"/><path fill="#fefefe" d="M 55.972656 51.683594 L 53.40625 49.085938 L 45.4375 57.050781 C 45.167969 57.320312 44.730469 57.320312 44.460938 57.050781 L 36.492188 49.085938 L 33.925781 51.683594 L 44.964844 62.6875 Z M 55.972656 51.683594 " fill-opacity="1" fill-rule="evenodd"/><path fill="#fefefe" d="M 33.050781 44.628906 L 30.484375 42.027344 L 27.109375 45.40625 L 29.671875 48.003906 Z M 33.050781 44.628906 " fill-opacity="1" fill-rule="evenodd"/><path fill="#fefefe" d="M 47.9375 45.40625 L 44.5625 42.027344 L 41.960938 44.628906 L 45.335938 48.003906 Z M 47.9375 45.40625 " fill-opacity="1" fill-rule="evenodd"/><path fill="#fefefe" d="M 62.925781 45.40625 L 59.550781 42.027344 L 56.984375 44.628906 L 60.328125 48.003906 Z M 62.925781 45.40625 " fill-opacity="1" fill-rule="evenodd"/></svg>