<svg xmlns="http://www.w3.org/2000/svg" xmlns:xlink="http://www.w3.org/1999/xlink" width="120" zoomAndPan="magnify" viewBox="0 0 90 89.999999" height="120" preserveAspectRatio="xMidYMid meet" version="1.0"><defs><g/><clipPath id="2cce3e9cdf"><path d="M 4.835938 74 L 9 74 L 9 77 L 4.835938 77 Z M 4.835938 74 " clip-rule="nonzero"/></clipPath><clipPath id="efd9fd446f"><path d="M 80 28 L 85.085938 28 L 85.085938 30 L 80 30 Z M 80 28 " clip-rule="nonzero"/></clipPath></defs><path fill="#000000" d="M 72.550781 51.9375 L 44.636719 68.351562 L 44.636719 89.980469 L 73.578125 53.148438 C 73.820312 52.839844 73.8125 52.40625 73.558594 52.109375 C 73.308594 51.8125 72.878906 51.742188 72.550781 51.9375 Z M 72.550781 51.9375 " fill-opacity="1" fill-rule="nonzero"/><path fill="#000000" d="M 43.03125 68.351562 L 15.128906 51.945312 C 14.792969 51.75 14.371094 51.820312 14.117188 52.117188 C 13.867188 52.414062 13.855469 52.847656 14.097656 53.15625 L 43.03125 89.980469 Z M 43.03125 68.351562 " fill-opacity="1" fill-rule="nonzero"/><path fill="#000000" d="M 40.28125 5.132812 L 15.871094 45.394531 C 15.804688 45.503906 15.773438 45.628906 15.765625 45.753906 C 15.753906 45.785156 15.753906 45.804688 15.753906 45.820312 C 15.753906 45.847656 15.769531 45.871094 15.769531 45.898438 C 15.773438 45.9375 15.765625 45.980469 15.777344 46.019531 C 15.785156 46.054688 15.808594 46.082031 15.824219 46.117188 C 15.839844 46.160156 15.855469 46.199219 15.878906 46.238281 C 15.921875 46.304688 15.96875 46.359375 16.027344 46.410156 C 16.050781 46.429688 16.058594 46.460938 16.085938 46.480469 C 16.09375 46.484375 16.105469 46.480469 16.113281 46.488281 C 16.125 46.496094 16.136719 46.511719 16.148438 46.523438 L 43.03125 62.421875 L 43.03125 37.800781 C 43.03125 37.351562 43.390625 36.988281 43.835938 36.988281 C 44.277344 36.988281 44.636719 37.351562 44.636719 37.800781 L 44.636719 62.421875 L 71.519531 46.523438 C 71.585938 46.484375 71.632812 46.425781 71.683594 46.375 C 71.703125 46.355469 71.726562 46.347656 71.746094 46.324219 C 71.746094 46.324219 71.746094 46.320312 71.75 46.316406 C 71.816406 46.226562 71.867188 46.128906 71.894531 46.019531 C 71.902344 45.984375 71.894531 45.953125 71.898438 45.917969 C 71.902344 45.882812 71.902344 45.851562 71.902344 45.8125 C 71.902344 45.667969 71.878906 45.523438 71.800781 45.394531 L 44.519531 0.402344 C 44.507812 0.386719 44.492188 0.375 44.480469 0.359375 C 44.472656 0.34375 44.460938 0.335938 44.449219 0.320312 C 44.347656 0.195312 44.21875 0.101562 44.066406 0.0546875 C 44.0625 0.0546875 44.058594 0.046875 44.054688 0.046875 C 44.03125 0.0390625 44.007812 0.0429688 43.984375 0.0390625 C 43.9375 0.0273438 43.886719 0.0195312 43.835938 0.0195312 C 43.785156 0.0195312 43.738281 0.0273438 43.691406 0.0390625 C 43.664062 0.0429688 43.640625 0.0390625 43.617188 0.046875 C 43.613281 0.046875 43.609375 0.0546875 43.601562 0.0585938 C 43.453125 0.105469 43.324219 0.195312 43.222656 0.320312 C 43.210938 0.332031 43.199219 0.34375 43.1875 0.359375 C 43.175781 0.375 43.160156 0.386719 43.152344 0.402344 C 42.15625 2.042969 41.207031 3.609375 40.28125 5.132812 Z M 18.386719 44.351562 C 22.730469 37.191406 38.160156 11.742188 43.03125 3.703125 L 43.03125 36.109375 Z M 44.636719 3.703125 L 69.285156 44.351562 L 44.636719 36.109375 Z M 44.636719 3.703125 " fill-opacity="1" fill-rule="nonzero"/><path fill="#000000" d="M 11.273438 73.003906 C 11.71875 73.003906 12.078125 72.640625 12.078125 72.191406 L 12.078125 69.738281 C 12.078125 69.289062 11.71875 68.925781 11.273438 68.925781 C 10.832031 68.925781 10.472656 69.289062 10.472656 69.738281 L 10.472656 72.191406 C 10.472656 72.640625 10.832031 73.003906 11.273438 73.003906 Z M 11.273438 73.003906 " fill-opacity="1" fill-rule="nonzero"/><g clip-path="url(#2cce3e9cdf)"><path fill="#000000" d="M 8.144531 74.507812 L 5.640625 74.507812 C 5.195312 74.507812 4.835938 74.871094 4.835938 75.320312 C 4.835938 75.765625 5.195312 76.132812 5.640625 76.132812 L 8.144531 76.132812 C 8.589844 76.132812 8.949219 75.765625 8.949219 75.320312 C 8.949219 74.871094 8.589844 74.507812 8.144531 74.507812 Z M 8.144531 74.507812 " fill-opacity="1" fill-rule="nonzero"/></g><path fill="#000000" d="M 11.339844 77.570312 C 10.894531 77.570312 10.535156 77.933594 10.535156 78.382812 L 10.535156 80.835938 C 10.535156 81.285156 10.894531 81.648438 11.339844 81.648438 C 11.78125 81.648438 12.140625 81.285156 12.140625 80.835938 L 12.140625 78.382812 C 12.140625 77.933594 11.78125 77.570312 11.339844 77.570312 Z M 11.339844 77.570312 " fill-opacity="1" fill-rule="nonzero"/><path fill="#000000" d="M 16.972656 74.445312 L 14.464844 74.445312 C 14.023438 74.445312 13.664062 74.808594 13.664062 75.257812 C 13.664062 75.707031 14.023438 76.070312 14.464844 76.070312 L 16.972656 76.070312 C 17.417969 76.070312 17.777344 75.707031 17.777344 75.257812 C 17.777344 74.808594 17.417969 74.445312 16.972656 74.445312 Z M 16.972656 74.445312 " fill-opacity="1" fill-rule="nonzero"/><path fill="#000000" d="M 12.714844 14.601562 C 13.15625 14.601562 13.515625 14.238281 13.515625 13.789062 L 13.515625 11.335938 C 13.515625 10.886719 13.15625 10.523438 12.714844 10.523438 C 12.269531 10.523438 11.910156 10.886719 11.910156 11.335938 L 11.910156 13.789062 C 11.910156 14.238281 12.269531 14.601562 12.714844 14.601562 Z M 12.714844 14.601562 " fill-opacity="1" fill-rule="nonzero"/><path fill="#000000" d="M 9.585938 16.105469 L 7.078125 16.105469 C 6.636719 16.105469 6.277344 16.46875 6.277344 16.917969 C 6.277344 17.367188 6.636719 17.730469 7.078125 17.730469 L 9.585938 17.730469 C 10.027344 17.730469 10.386719 17.367188 10.386719 16.917969 C 10.386719 16.46875 10.027344 16.105469 9.585938 16.105469 Z M 9.585938 16.105469 " fill-opacity="1" fill-rule="nonzero"/><path fill="#000000" d="M 12.777344 19.167969 C 12.332031 19.167969 11.972656 19.53125 11.972656 19.980469 L 11.972656 22.433594 C 11.972656 22.882812 12.332031 23.246094 12.777344 23.246094 C 13.21875 23.246094 13.578125 22.882812 13.578125 22.433594 L 13.578125 19.980469 C 13.578125 19.53125 13.21875 19.167969 12.777344 19.167969 Z M 12.777344 19.167969 " fill-opacity="1" fill-rule="nonzero"/><path fill="#000000" d="M 15.90625 17.667969 L 18.410156 17.667969 C 18.855469 17.667969 19.214844 17.304688 19.214844 16.855469 C 19.214844 16.40625 18.855469 16.042969 18.410156 16.042969 L 15.90625 16.042969 C 15.460938 16.042969 15.101562 16.40625 15.101562 16.855469 C 15.101562 17.304688 15.460938 17.667969 15.90625 17.667969 Z M 15.90625 17.667969 " fill-opacity="1" fill-rule="nonzero"/><path fill="#000000" d="M 78.585938 26.933594 C 79.03125 26.933594 79.390625 26.570312 79.390625 26.121094 L 79.390625 23.664062 C 79.390625 23.214844 79.03125 22.851562 78.585938 22.851562 C 78.144531 22.851562 77.785156 23.214844 77.785156 23.664062 L 77.785156 26.121094 C 77.785156 26.570312 78.144531 26.933594 78.585938 26.933594 Z M 78.585938 26.933594 " fill-opacity="1" fill-rule="nonzero"/><path fill="#000000" d="M 75.457031 28.433594 L 72.953125 28.433594 C 72.507812 28.433594 72.148438 28.796875 72.148438 29.246094 C 72.148438 29.695312 72.507812 30.058594 72.953125 30.058594 L 75.457031 30.058594 C 75.902344 30.058594 76.261719 29.695312 76.261719 29.246094 C 76.261719 28.796875 75.902344 28.433594 75.457031 28.433594 Z M 75.457031 28.433594 " fill-opacity="1" fill-rule="nonzero"/><path fill="#000000" d="M 78.648438 31.496094 C 78.207031 31.496094 77.847656 31.859375 77.847656 32.308594 L 77.847656 34.761719 C 77.847656 35.210938 78.207031 35.574219 78.648438 35.574219 C 79.09375 35.574219 79.453125 35.210938 79.453125 34.761719 L 79.453125 32.308594 C 79.453125 31.859375 79.09375 31.496094 78.648438 31.496094 Z M 78.648438 31.496094 " fill-opacity="1" fill-rule="nonzero"/><g clip-path="url(#efd9fd446f)"><path fill="#000000" d="M 84.285156 28.371094 L 81.78125 28.371094 C 81.335938 28.371094 80.976562 28.734375 80.976562 29.183594 C 80.976562 29.632812 81.335938 29.996094 81.78125 29.996094 L 84.285156 29.996094 C 84.730469 29.996094 85.085938 29.632812 85.085938 29.183594 C 85.085938 28.734375 84.730469 28.371094 84.285156 28.371094 Z M 84.285156 28.371094 " fill-opacity="1" fill-rule="nonzero"/></g><g fill="#000000" fill-opacity="1"><g transform="translate(31.801171, 46.125)"><g><path d="M 0.375 0 L 0.375 -3.015625 L 0.6875 -3.015625 L 0.6875 -1.84375 L 0.734375 -1.84375 C 0.890625 -2.082031 1.113281 -2.203125 1.40625 -2.203125 C 1.664062 -2.203125 1.851562 -2.132812 1.96875 -2 C 2.082031 -1.863281 2.140625 -1.660156 2.140625 -1.390625 L 2.140625 0 L 1.828125 0 L 1.828125 -1.375 C 1.828125 -1.507812 1.804688 -1.613281 1.765625 -1.6875 C 1.734375 -1.769531 1.679688 -1.828125 1.609375 -1.859375 C 1.546875 -1.898438 1.457031 -1.921875 1.34375 -1.921875 C 1.144531 -1.921875 0.984375 -1.859375 0.859375 -1.734375 C 0.742188 -1.609375 0.6875 -1.398438 0.6875 -1.109375 L 0.6875 0 Z M 0.375 0 "/></g></g></g><g fill="#000000" fill-opacity="1"><g transform="translate(34.279217, 46.125)"><g><path d="M 2.046875 -1 L 0.578125 -1 C 0.585938 -0.738281 0.648438 -0.546875 0.765625 -0.421875 C 0.878906 -0.304688 1.035156 -0.25 1.234375 -0.25 C 1.390625 -0.25 1.515625 -0.273438 1.609375 -0.328125 C 1.703125 -0.378906 1.773438 -0.460938 1.828125 -0.578125 L 1.875 -0.578125 L 2.078125 -0.46875 C 2.015625 -0.3125 1.914062 -0.1875 1.78125 -0.09375 C 1.644531 0 1.460938 0.046875 1.234375 0.046875 C 1.023438 0.046875 0.847656 0.00390625 0.703125 -0.078125 C 0.554688 -0.160156 0.441406 -0.285156 0.359375 -0.453125 C 0.273438 -0.617188 0.234375 -0.828125 0.234375 -1.078125 C 0.234375 -1.316406 0.273438 -1.519531 0.359375 -1.6875 C 0.453125 -1.863281 0.570312 -1.992188 0.71875 -2.078125 C 0.863281 -2.160156 1.03125 -2.203125 1.21875 -2.203125 C 1.5 -2.203125 1.710938 -2.125 1.859375 -1.96875 C 2.015625 -1.8125 2.097656 -1.578125 2.109375 -1.265625 C 2.109375 -1.148438 2.101562 -1.070312 2.09375 -1.03125 Z M 1.78125 -1.265625 C 1.78125 -1.492188 1.726562 -1.660156 1.625 -1.765625 C 1.53125 -1.867188 1.394531 -1.921875 1.21875 -1.921875 C 1.03125 -1.921875 0.878906 -1.867188 0.765625 -1.765625 C 0.660156 -1.660156 0.597656 -1.492188 0.578125 -1.265625 Z M 1.78125 -1.265625 "/></g></g></g><g fill="#000000" fill-opacity="1"><g transform="translate(36.573849, 46.125)"><g><path d="M 0.859375 0.046875 C 0.703125 0.046875 0.582031 0.00390625 0.5 -0.078125 C 0.414062 -0.171875 0.375 -0.304688 0.375 -0.484375 L 0.375 -3.015625 L 0.6875 -3.015625 L 0.6875 -0.5 C 0.6875 -0.40625 0.703125 -0.335938 0.734375 -0.296875 C 0.773438 -0.265625 0.832031 -0.25 0.90625 -0.25 C 0.945312 -0.25 0.988281 -0.253906 1.03125 -0.265625 L 1.0625 -0.265625 L 1.09375 -0.015625 C 1.070312 0.00390625 1.039062 0.0195312 1 0.03125 C 0.957031 0.0390625 0.910156 0.046875 0.859375 0.046875 Z M 0.859375 0.046875 "/></g></g></g><g fill="#000000" fill-opacity="1"><g transform="translate(37.744579, 46.125)"><g><path d="M 0.859375 0.046875 C 0.703125 0.046875 0.582031 0.00390625 0.5 -0.078125 C 0.414062 -0.171875 0.375 -0.304688 0.375 -0.484375 L 0.375 -3.015625 L 0.6875 -3.015625 L 0.6875 -0.5 C 0.6875 -0.40625 0.703125 -0.335938 0.734375 -0.296875 C 0.773438 -0.265625 0.832031 -0.25 0.90625 -0.25 C 0.945312 -0.25 0.988281 -0.253906 1.03125 -0.265625 L 1.0625 -0.265625 L 1.09375 -0.015625 C 1.070312 0.00390625 1.039062 0.0195312 1 0.03125 C 0.957031 0.0390625 0.910156 0.046875 0.859375 0.046875 Z M 0.859375 0.046875 "/></g></g></g><g fill="#000000" fill-opacity="1"><g transform="translate(38.91531, 46.125)"><g><path d="M 1.234375 0.046875 C 1.035156 0.046875 0.859375 0.00390625 0.703125 -0.078125 C 0.554688 -0.171875 0.441406 -0.300781 0.359375 -0.46875 C 0.273438 -0.632812 0.234375 -0.835938 0.234375 -1.078125 C 0.234375 -1.316406 0.273438 -1.519531 0.359375 -1.6875 C 0.441406 -1.851562 0.554688 -1.976562 0.703125 -2.0625 C 0.859375 -2.15625 1.035156 -2.203125 1.234375 -2.203125 C 1.441406 -2.203125 1.617188 -2.15625 1.765625 -2.0625 C 1.921875 -1.976562 2.035156 -1.851562 2.109375 -1.6875 C 2.191406 -1.519531 2.234375 -1.316406 2.234375 -1.078125 C 2.234375 -0.835938 2.191406 -0.632812 2.109375 -0.46875 C 2.035156 -0.300781 1.921875 -0.171875 1.765625 -0.078125 C 1.617188 0.00390625 1.441406 0.046875 1.234375 0.046875 Z M 1.234375 -0.25 C 1.453125 -0.25 1.617188 -0.316406 1.734375 -0.453125 C 1.847656 -0.585938 1.90625 -0.796875 1.90625 -1.078125 C 1.90625 -1.359375 1.847656 -1.566406 1.734375 -1.703125 C 1.617188 -1.835938 1.453125 -1.90625 1.234375 -1.90625 C 1.023438 -1.90625 0.863281 -1.835938 0.75 -1.703125 C 0.632812 -1.566406 0.578125 -1.359375 0.578125 -1.078125 C 0.578125 -0.796875 0.632812 -0.585938 0.75 -0.453125 C 0.863281 -0.316406 1.023438 -0.25 1.234375 -0.25 Z M 1.234375 -0.25 "/></g></g></g></svg>