<svg xmlns="http://www.w3.org/2000/svg" xmlns:xlink="http://www.w3.org/1999/xlink" width="120" zoomAndPan="magnify" viewBox="0 0 90 89.999999" height="120" preserveAspectRatio="xMidYMid meet" version="1.0"><defs><g/></defs><g fill="#000000" fill-opacity="1"><g transform="translate(8.472656, 43.900001)"><g><path d="M 0.53125 0.015625 C 0.457031 0.015625 0.394531 -0.00390625 0.34375 -0.046875 C 0.300781 -0.0859375 0.28125 -0.140625 0.28125 -0.203125 C 0.28125 -0.273438 0.300781 -0.332031 0.34375 -0.375 C 0.394531 -0.414062 0.457031 -0.4375 0.53125 -0.4375 C 0.601562 -0.4375 0.660156 -0.414062 0.703125 -0.375 C 0.742188 -0.332031 0.765625 -0.28125 0.765625 -0.21875 C 0.765625 -0.144531 0.742188 -0.0859375 0.703125 -0.046875 C 0.660156 -0.00390625 0.601562 0.015625 0.53125 0.015625 Z M 0.53125 0.015625 "/></g></g></g><path stroke-linecap="round" transform="matrix(1.353756, 0, 0, 1.34858, 0.19068, 2.081252)" fill="none" stroke-linejoin="round" d="M 46.500223 6.888608 C 45.677858 6.413572 44.83241 5.981983 43.969648 5.588051 C 43.104001 5.197014 42.22104 4.849427 41.320767 4.542391 C 40.423379 4.238252 39.511564 3.977561 38.585322 3.760319 C 37.659079 3.545973 36.727066 3.375075 35.786395 3.250523 C 34.84284 3.125971 33.899284 3.047764 32.949958 3.015901 C 32.000631 2.986936 31.051305 3.001419 30.101978 3.062246 C 29.155537 3.125971 28.211982 3.233144 27.274197 3.386662 C 26.339298 3.543076 25.41017 3.742939 24.492584 3.989147 C 23.574998 4.235355 22.671839 4.525012 21.783108 4.858116 C 20.894377 5.194118 20.022958 5.570671 19.171739 5.990673 C 18.320519 6.410675 17.492383 6.871229 16.684445 7.372334 C 15.876508 7.87344 15.097425 8.412201 14.344312 8.991514 C 13.591199 9.570827 12.866941 10.182002 12.174423 10.833729 C 11.47902 11.482559 10.821128 12.163252 10.194976 12.878703 C 9.565939 13.591258 8.977299 14.335675 8.423285 15.106161 C 7.872156 15.879544 7.355653 16.676099 6.882433 17.498724 C 6.406327 18.321348 5.973503 19.164248 5.581076 20.030321 C 5.188649 20.893497 4.839505 21.776949 4.533643 22.677781 C 4.227781 23.575716 3.968087 24.488133 3.751675 25.412138 C 3.538149 26.339038 3.367905 27.271732 3.243828 28.213115 C 3.119752 29.154499 3.041844 30.101675 3.010104 31.048852 C 2.978363 31.998925 2.995676 32.948998 3.056272 33.896175 C 3.119752 34.843351 3.226516 35.784735 3.382332 36.723222 C 3.535263 37.658812 3.737247 38.588609 3.982514 39.503923 C 4.227781 40.422134 4.519215 41.325862 4.851047 42.215108 C 5.185764 43.104353 5.563763 43.973322 5.985045 44.824912 C 6.403441 45.679399 6.86512 46.507816 7.367195 47.313061 C 7.86927 48.121203 8.408857 48.900378 8.985955 49.653485 C 9.563054 50.406592 10.177663 51.130733 10.826899 51.825908 C 11.476134 52.518187 12.15711 53.178604 12.872712 53.804262 C 13.585428 54.42992 14.329885 55.020819 15.100311 55.574063 C 15.873622 56.127307 16.670018 56.639998 17.492383 57.115035 C 18.314748 57.590072 19.160197 58.024556 20.025844 58.415592 C 20.891491 58.809525 21.771566 59.157113 22.671839 59.461252 C 23.572112 59.768288 24.483927 60.028979 25.407284 60.243325 C 26.333527 60.460567 27.268426 60.628568 28.209096 60.75312 C 29.149766 60.877672 30.096207 60.955879 31.045534 60.984845 C 31.99486 61.016707 32.944187 61.002224 33.890628 60.9385 C 34.839954 60.877672 35.780624 60.767603 36.718409 60.614085 C 37.656194 60.460567 38.582436 60.257807 39.500022 60.014496 C 40.417608 59.768288 41.320767 59.475735 42.209498 59.14263 C 43.09823 58.806629 43.969648 58.430075 44.820868 58.010073 C 45.672087 57.590072 46.503109 57.129518 47.308161 56.628412 C 48.116098 56.127307 48.895181 55.585649 49.648294 55.009233 C 50.401407 54.42992 51.125665 53.815848 51.818183 53.167018 C 52.513587 52.518187 53.171478 51.834598 53.79763 51.122043 C 54.423782 50.406592 55.015307 49.665071 55.566436 48.891689 C 56.12045 48.121203 56.634068 47.321751 57.110174 46.499126 C 57.583394 45.676502 58.019103 44.833602 58.408645 43.967529 C 58.801071 43.104353 59.150216 42.220901 59.456078 41.322966 C 59.76194 40.422134 60.021634 39.512613 60.238046 38.585712 C 60.451572 37.661708 60.621816 36.729015 60.745892 35.787631 C 60.869968 34.846248 60.947877 33.899071 60.979617 32.951895 C 61.011357 32.001822 60.994044 31.054645 60.933449 30.107468 C 60.869968 29.157395 60.763205 28.216012 60.607389 27.280422 C 60.451572 26.341935 60.252473 25.415034 60.007207 24.496823 C 59.76194 23.581509 59.470505 22.677781 59.135788 21.788535 C 58.801071 20.89929 58.425957 20.030321 58.004676 19.178731 C 57.58628 18.327141 57.124601 17.498724 56.622526 16.690582 C 56.123336 15.885337 55.580863 15.103265 55.003765 14.350158 C 54.426667 13.597051 53.812057 12.87291 53.162822 12.180631 C 52.513587 11.488352 51.832611 10.827936 51.119894 10.202278 C 50.404293 9.57662 49.662721 8.985721 48.892295 8.432477 C 48.118984 7.879233 47.322588 7.363645 46.500223 6.888608 Z M 46.500223 6.888608 " stroke="#000000" stroke-width="2" stroke-opacity="1" stroke-miterlimit="4"/><path stroke-linecap="round" transform="matrix(1.353756, 0, 0, 1.34858, 0.19068, 2.081252)" fill="none" stroke-linejoin="round" d="M 44.500578 10.350003 C 43.790747 9.941587 43.063604 9.56793 42.316261 9.229032 C 41.571805 8.890134 40.810035 8.591788 40.036724 8.328201 C 39.260527 8.064613 38.475673 7.838681 37.676392 7.653301 C 36.879997 7.467921 36.074945 7.320196 35.264122 7.213023 C 34.450413 7.10585 33.636705 7.039229 32.817225 7.01316 C 32.000631 6.987091 31.181152 7.001574 30.364558 7.053712 C 29.547964 7.10585 28.734256 7.201437 27.926318 7.334679 C 27.118381 7.467921 26.3191 7.638818 25.528475 7.853164 C 24.737851 8.064613 23.958768 8.313718 23.194113 8.603374 C 22.426572 8.890134 21.676345 9.214549 20.94343 9.579516 C 20.20763 9.941587 19.492028 10.338416 18.79951 10.770004 C 18.104107 11.201593 17.428902 11.667939 16.779667 12.166148 C 16.130431 12.664358 15.507165 13.194429 14.909868 13.753466 C 14.312572 14.312503 13.74413 14.900505 13.204543 15.517473 C 12.664956 16.131545 12.154225 16.771686 11.678119 17.437896 C 11.202013 18.104106 10.757647 18.790591 10.347907 19.50025 C 9.938167 20.209908 9.565939 20.936946 9.228337 21.681363 C 8.890734 22.428676 8.590643 23.187576 8.325178 23.963855 C 8.062598 24.740135 7.83753 25.525104 7.652859 26.321659 C 7.465302 27.121111 7.321027 27.923459 7.214264 28.737393 C 7.107501 29.548432 7.038249 30.362366 7.01228 31.182094 C 6.98631 31.998925 6.997852 32.818653 7.052677 33.635484 C 7.107501 34.452315 7.199837 35.263353 7.332569 36.071495 C 7.465302 36.879636 7.638431 37.679088 7.851958 38.46985 C 8.062598 39.260612 8.313636 40.039788 8.602185 40.807377 C 8.890734 41.57207 9.213909 42.322281 9.577481 43.058008 C 9.938167 43.790839 10.336365 44.50629 10.769189 45.201466 C 11.202013 45.896641 11.666577 46.568644 12.165767 47.220371 C 12.664956 47.869201 13.193001 48.491963 13.752787 49.088655 C 14.312572 49.688244 14.901212 50.255971 15.515822 50.794731 C 16.130431 51.336389 16.77101 51.843288 17.437558 52.321221 C 18.104107 52.799154 18.790854 53.242328 19.497799 53.650744 C 20.20763 54.05916 20.934774 54.432816 21.682116 54.771714 C 22.426572 55.110612 23.188342 55.408959 23.964539 55.672546 C 24.737851 55.936133 25.52559 56.162065 26.321985 56.347445 C 27.118381 56.532826 27.923433 56.68055 28.737141 56.787723 C 29.547964 56.892 30.361672 56.958621 31.181152 56.987586 C 32.000631 57.013655 32.817225 56.999172 33.633819 56.947034 C 34.450413 56.892 35.264122 56.79931 36.072059 56.666068 C 36.879997 56.532826 37.679278 56.359032 38.469902 56.147583 C 39.260527 55.936133 40.039609 55.687029 40.804264 55.397372 C 41.571805 55.110612 42.322032 54.783301 43.057833 54.42123 C 43.790747 54.05916 44.506349 53.66233 45.201752 53.230742 C 45.897156 52.799154 46.569475 52.332807 47.218711 51.834598 C 47.867946 51.336389 48.491212 50.806318 49.088509 50.247281 C 49.685805 49.688244 50.254247 49.100241 50.796719 48.483273 C 51.336306 47.869201 51.844153 47.226164 52.320259 46.562851 C 52.796365 45.896641 53.24073 45.210155 53.65047 44.500497 C 54.06021 43.790839 54.432438 43.063801 54.77004 42.316487 C 55.107643 41.57207 55.410619 40.810274 55.673199 40.036891 C 55.935779 39.260612 56.160847 38.475643 56.345518 37.676191 C 56.533075 36.879636 56.67735 36.074391 56.784113 35.263353 C 56.890876 34.452315 56.960128 33.635484 56.986097 32.818653 C 57.012067 31.998925 57.000525 31.182094 56.945701 30.365263 C 56.890876 29.548432 56.798541 28.734497 56.665808 27.929252 C 56.533075 27.121111 56.359946 26.321659 56.14642 25.530897 C 55.935779 24.740135 55.684741 23.960959 55.396192 23.193369 C 55.107643 22.428676 54.784468 21.678466 54.420896 20.942739 C 54.06021 20.209908 53.662012 19.494456 53.229188 18.799281 C 52.796365 18.104106 52.331801 17.432103 51.832611 16.780376 C 51.336306 16.131545 50.805376 15.508784 50.245591 14.912092 C 49.685805 14.312503 49.100051 13.744776 48.482556 13.206015 C 47.867946 12.664358 47.227367 12.157459 46.560819 11.679526 C 45.897156 11.201593 45.210409 10.758418 44.500578 10.350003 Z M 44.500578 10.350003 " stroke="#000000" stroke-width="1.72" stroke-opacity="1" stroke-miterlimit="4"/><path stroke-linecap="round" transform="matrix(1.353756, 0, 0, 1.34858, 0.19068, 2.081252)" fill="none" stroke-linejoin="round" d="M 32.000631 51.999702 L 18.000229 17.000514 L 42.500933 17.999829 L 46.999413 23.998614 Z M 32.000631 51.999702 " stroke="#000000" stroke-width="2" stroke-opacity="1" stroke-miterlimit="4"/><path stroke-linecap="round" transform="matrix(1.353756, 0, 0, 1.34858, 0.19068, 2.081252)" fill="none" stroke-linejoin="round" d="M 32.000631 50.001073 L 32.000631 27.99877 " stroke="#000000" stroke-width="2" stroke-opacity="1" stroke-miterlimit="4"/><path stroke-linecap="round" transform="matrix(1.353756, 0, 0, 1.34858, 0.19068, 2.081252)" fill="none" stroke-linejoin="round" d="M 41.998857 18.999144 L 32.000631 27.99877 " stroke="#000000" stroke-width="2" stroke-opacity="1" stroke-miterlimit="4"/><path stroke-linecap="round" transform="matrix(1.353756, 0, 0, 1.34858, 0.19068, 2.081252)" fill="none" stroke-linejoin="round" d="M 46.999413 23.998614 L 32.000631 27.99877 " stroke="#000000" stroke-width="2" stroke-opacity="1" stroke-miterlimit="4"/><path stroke-linecap="round" transform="matrix(1.353756, 0, 0, 1.34858, 0.19068, 2.081252)" fill="none" stroke-linejoin="round" d="M 18.000229 17.000514 L 32.000631 27.99877 " stroke="#000000" stroke-width="2" stroke-opacity="1" stroke-miterlimit="4"/></svg>