<svg xmlns="http://www.w3.org/2000/svg" xmlns:xlink="http://www.w3.org/1999/xlink" width="120" zoomAndPan="magnify" viewBox="0 0 90 89.999999" height="120" preserveAspectRatio="xMidYMid meet" version="1.0"><defs><g/></defs><g fill="#000000" fill-opacity="1"><g transform="translate(8.472656, 43.900001)"><g><path d="M 0.53125 0.015625 C 0.457031 0.015625 0.394531 -0.00390625 0.34375 -0.046875 C 0.300781 -0.0859375 0.28125 -0.140625 0.28125 -0.203125 C 0.28125 -0.273438 0.300781 -0.332031 0.34375 -0.375 C 0.394531 -0.414062 0.457031 -0.4375 0.53125 -0.4375 C 0.601562 -0.4375 0.660156 -0.414062 0.703125 -0.375 C 0.742188 -0.332031 0.765625 -0.28125 0.765625 -0.21875 C 0.765625 -0.144531 0.742188 -0.0859375 0.703125 -0.046875 C 0.660156 -0.00390625 0.601562 0.015625 0.53125 0.015625 Z M 0.53125 0.015625 "/></g></g></g><path fill="#26a17b" d="M 90 45 C 90 46.472656 89.929688 47.945312 89.785156 49.410156 C 89.640625 50.878906 89.421875 52.332031 89.136719 53.777344 C 88.847656 55.222656 88.488281 56.652344 88.0625 58.0625 C 87.632812 59.472656 87.136719 60.859375 86.574219 62.222656 C 86.011719 63.582031 85.382812 64.914062 84.6875 66.210938 C 83.992188 67.511719 83.234375 68.773438 82.417969 70 C 81.597656 71.226562 80.71875 72.410156 79.785156 73.546875 C 78.851562 74.6875 77.863281 75.777344 76.820312 76.820312 C 75.777344 77.863281 74.6875 78.851562 73.546875 79.785156 C 72.410156 80.71875 71.226562 81.597656 70 82.417969 C 68.773438 83.234375 67.511719 83.992188 66.210938 84.6875 C 64.914062 85.382812 63.582031 86.011719 62.222656 86.574219 C 60.859375 87.136719 59.472656 87.632812 58.0625 88.0625 C 56.652344 88.488281 55.222656 88.847656 53.777344 89.136719 C 52.332031 89.421875 50.878906 89.640625 49.410156 89.785156 C 47.945312 89.929688 46.472656 90 45 90 C 43.527344 90 42.054688 89.929688 40.589844 89.785156 C 39.121094 89.640625 37.667969 89.421875 36.222656 89.136719 C 34.777344 88.847656 33.347656 88.488281 31.9375 88.0625 C 30.527344 87.632812 29.140625 87.136719 27.777344 86.574219 C 26.417969 86.011719 25.085938 85.382812 23.789062 84.6875 C 22.488281 83.992188 21.226562 83.234375 20 82.417969 C 18.773438 81.597656 17.589844 80.71875 16.453125 79.785156 C 15.3125 78.851562 14.222656 77.863281 13.179688 76.820312 C 12.136719 75.777344 11.148438 74.6875 10.214844 73.546875 C 9.28125 72.410156 8.402344 71.226562 7.582031 70 C 6.765625 68.773438 6.007812 67.511719 5.3125 66.210938 C 4.617188 64.914062 3.988281 63.582031 3.425781 62.222656 C 2.863281 60.859375 2.367188 59.472656 1.9375 58.0625 C 1.511719 56.652344 1.152344 55.222656 0.863281 53.777344 C 0.578125 52.332031 0.359375 50.878906 0.214844 49.410156 C 0.0703125 47.945312 0 46.472656 0 45 C 0 43.527344 0.0703125 42.054688 0.214844 40.589844 C 0.359375 39.121094 0.578125 37.667969 0.863281 36.222656 C 1.152344 34.777344 1.511719 33.347656 1.9375 31.9375 C 2.367188 30.527344 2.863281 29.140625 3.425781 27.777344 C 3.988281 26.417969 4.617188 25.085938 5.3125 23.789062 C 6.007812 22.488281 6.765625 21.226562 7.582031 20 C 8.402344 18.773438 9.28125 17.589844 10.214844 16.453125 C 11.148438 15.3125 12.136719 14.222656 13.179688 13.179688 C 14.222656 12.136719 15.3125 11.148438 16.453125 10.214844 C 17.589844 9.28125 18.773438 8.402344 20 7.582031 C 21.226562 6.765625 22.488281 6.007812 23.789062 5.3125 C 25.085938 4.617188 26.417969 3.988281 27.777344 3.425781 C 29.140625 2.863281 30.527344 2.367188 31.9375 1.9375 C 33.347656 1.511719 34.777344 1.152344 36.222656 0.863281 C 37.667969 0.578125 39.121094 0.359375 40.589844 0.214844 C 42.054688 0.0703125 43.527344 0 45 0 C 46.472656 0 47.945312 0.0703125 49.410156 0.214844 C 50.878906 0.359375 52.332031 0.578125 53.777344 0.863281 C 55.222656 1.152344 56.652344 1.511719 58.0625 1.9375 C 59.472656 2.367188 60.859375 2.863281 62.222656 3.425781 C 63.582031 3.988281 64.914062 4.617188 66.210938 5.3125 C 67.511719 6.007812 68.773438 6.765625 70 7.582031 C 71.226562 8.402344 72.410156 9.28125 73.546875 10.214844 C 74.6875 11.148438 75.777344 12.136719 76.820312 13.179688 C 77.863281 14.222656 78.851562 15.3125 79.785156 16.453125 C 80.71875 17.589844 81.597656 18.773438 82.417969 20 C 83.234375 21.226562 83.992188 22.488281 84.6875 23.789062 C 85.382812 25.085938 86.011719 26.417969 86.574219 27.777344 C 87.136719 29.140625 87.632812 30.527344 88.0625 31.9375 C 88.488281 33.347656 88.847656 34.777344 89.136719 36.222656 C 89.421875 37.667969 89.640625 39.121094 89.785156 40.589844 C 89.929688 42.054688 90 43.527344 90 45 Z M 90 45 " fill-opacity="1" fill-rule="nonzero"/><path fill="#ffffff" d="M 50.496094 49.167969 C 50.210938 49.167969 48.601562 49.261719 45 49.261719 C 42.15625 49.261719 40.167969 49.167969 39.410156 49.167969 C 28.421875 48.695312 20.179688 46.800781 20.179688 44.527344 C 20.179688 42.253906 28.421875 40.359375 39.410156 39.882812 L 39.410156 47.367188 C 40.167969 47.464844 42.15625 47.558594 45 47.558594 C 48.410156 47.558594 50.117188 47.367188 50.398438 47.367188 L 50.398438 39.882812 C 61.484375 40.261719 69.726562 42.15625 69.726562 44.429688 C 69.726562 46.800781 61.484375 48.695312 50.496094 49.167969 M 50.496094 39.03125 L 50.496094 32.304688 L 65.84375 32.304688 L 65.84375 22.167969 L 24.15625 22.167969 L 24.15625 32.398438 L 39.503906 32.398438 L 39.503906 39.125 C 27.09375 39.695312 17.714844 42.15625 17.714844 45.09375 C 17.714844 48.03125 27.09375 50.496094 39.503906 51.0625 L 39.503906 72.472656 L 50.589844 72.472656 L 50.589844 50.96875 C 63 50.398438 72.378906 47.9375 72.378906 45 C 72.285156 42.0625 63 39.601562 50.496094 39.03125 " fill-opacity="1" fill-rule="nonzero"/></svg>