<svg xmlns="http://www.w3.org/2000/svg" xmlns:xlink="http://www.w3.org/1999/xlink" width="120" zoomAndPan="magnify" viewBox="0 0 90 89.999999" height="120" preserveAspectRatio="xMidYMid meet" version="1.0"><defs><radialGradient gradientTransform="matrix(1, 0, 0, 1, 0.0000005, 0.000002)" gradientUnits="userSpaceOnUse" r="127.279491" cx="0" id="8e48a89ee3" cy="0" fx="0" fy="0"><stop stop-opacity="1" stop-color="rgb(14.051819%, 47.648621%, 99.41864%)" offset="0"/><stop stop-opacity="1" stop-color="rgb(13.980103%, 47.874451%, 99.150085%)" offset="0.0078125"/><stop stop-opacity="1" stop-color="rgb(13.9328%, 48.023987%, 98.971558%)" offset="0.0117188"/><stop stop-opacity="1" stop-color="rgb(13.885498%, 48.173523%, 98.791504%)" offset="0.015625"/><stop stop-opacity="1" stop-color="rgb(13.838196%, 48.324585%, 98.612976%)" offset="0.0195312"/><stop stop-opacity="1" stop-color="rgb(13.790894%, 48.474121%, 98.432922%)" offset="0.0234375"/><stop stop-opacity="1" stop-color="rgb(13.743591%, 48.623657%, 98.254395%)" offset="0.0273438"/><stop stop-opacity="1" stop-color="rgb(13.696289%, 48.774719%, 98.074341%)" offset="0.03125"/><stop stop-opacity="1" stop-color="rgb(13.648987%, 48.924255%, 97.895813%)" offset="0.0351562"/><stop stop-opacity="1" stop-color="rgb(13.601685%, 49.073792%, 97.715759%)" offset="0.0390625"/><stop stop-opacity="1" stop-color="rgb(13.554382%, 49.223328%, 97.537231%)" offset="0.0429688"/><stop stop-opacity="1" stop-color="rgb(13.50708%, 49.37439%, 97.357178%)" offset="0.046875"/><stop stop-opacity="1" stop-color="rgb(13.459778%, 49.523926%, 97.17865%)" offset="0.0507812"/><stop stop-opacity="1" stop-color="rgb(13.412476%, 49.673462%, 96.998596%)" offset="0.0546875"/><stop stop-opacity="1" stop-color="rgb(13.365173%, 49.824524%, 96.820068%)" offset="0.0585938"/><stop stop-opacity="1" stop-color="rgb(13.317871%, 49.97406%, 96.640015%)" offset="0.0625"/><stop stop-opacity="1" stop-color="rgb(13.272095%, 50.123596%, 96.461487%)" offset="0.0664062"/><stop stop-opacity="1" stop-color="rgb(13.224792%, 50.274658%, 96.281433%)" offset="0.0703125"/><stop stop-opacity="1" stop-color="rgb(13.17749%, 50.424194%, 96.102905%)" offset="0.0742188"/><stop stop-opacity="1" stop-color="rgb(13.130188%, 50.57373%, 95.922852%)" offset="0.078125"/><stop stop-opacity="1" stop-color="rgb(13.082886%, 50.723267%, 95.744324%)" offset="0.0820312"/><stop stop-opacity="1" stop-color="rgb(13.035583%, 50.874329%, 95.56427%)" offset="0.0859375"/><stop stop-opacity="1" stop-color="rgb(12.988281%, 51.023865%, 95.385742%)" offset="0.0898438"/><stop stop-opacity="1" stop-color="rgb(12.940979%, 51.173401%, 95.205688%)" offset="0.09375"/><stop stop-opacity="1" stop-color="rgb(12.893677%, 51.324463%, 95.027161%)" offset="0.0976562"/><stop stop-opacity="1" stop-color="rgb(12.846375%, 51.473999%, 94.847107%)" offset="0.101562"/><stop stop-opacity="1" stop-color="rgb(12.799072%, 51.623535%, 94.668579%)" offset="0.105469"/><stop stop-opacity="1" stop-color="rgb(12.75177%, 51.774597%, 94.488525%)" offset="0.109375"/><stop stop-opacity="1" stop-color="rgb(12.704468%, 51.924133%, 94.309998%)" offset="0.113281"/><stop stop-opacity="1" stop-color="rgb(12.657166%, 52.073669%, 94.129944%)" offset="0.117188"/><stop stop-opacity="1" stop-color="rgb(12.609863%, 52.224731%, 93.951416%)" offset="0.121094"/><stop stop-opacity="1" stop-color="rgb(12.562561%, 52.374268%, 93.771362%)" offset="0.125"/><stop stop-opacity="1" stop-color="rgb(12.515259%, 52.523804%, 93.592834%)" offset="0.128906"/><stop stop-opacity="1" stop-color="rgb(12.467957%, 52.67334%, 93.412781%)" offset="0.132812"/><stop stop-opacity="1" stop-color="rgb(12.420654%, 52.824402%, 93.234253%)" offset="0.136719"/><stop stop-opacity="1" stop-color="rgb(12.373352%, 52.973938%, 93.054199%)" offset="0.140625"/><stop stop-opacity="1" stop-color="rgb(12.32605%, 53.123474%, 92.875671%)" offset="0.144531"/><stop stop-opacity="1" stop-color="rgb(12.278748%, 53.274536%, 92.695618%)" offset="0.148438"/><stop stop-opacity="1" stop-color="rgb(12.231445%, 53.424072%, 92.51709%)" offset="0.152344"/><stop stop-opacity="1" stop-color="rgb(12.184143%, 53.573608%, 92.337036%)" offset="0.15625"/><stop stop-opacity="1" stop-color="rgb(12.136841%, 53.72467%, 92.158508%)" offset="0.160156"/><stop stop-opacity="1" stop-color="rgb(12.089539%, 53.874207%, 91.978455%)" offset="0.164062"/><stop stop-opacity="1" stop-color="rgb(12.042236%, 54.023743%, 91.799927%)" offset="0.167969"/><stop stop-opacity="1" stop-color="rgb(11.994934%, 54.173279%, 91.619873%)" offset="0.171875"/><stop stop-opacity="1" stop-color="rgb(11.947632%, 54.324341%, 91.441345%)" offset="0.175781"/><stop stop-opacity="1" stop-color="rgb(11.90033%, 54.473877%, 91.261292%)" offset="0.179688"/><stop stop-opacity="1" stop-color="rgb(11.853027%, 54.623413%, 91.082764%)" offset="0.183594"/><stop stop-opacity="1" stop-color="rgb(11.805725%, 54.774475%, 90.90271%)" offset="0.1875"/><stop stop-opacity="1" stop-color="rgb(11.758423%, 54.924011%, 90.724182%)" offset="0.191406"/><stop stop-opacity="1" stop-color="rgb(11.711121%, 55.073547%, 90.544128%)" offset="0.195312"/><stop stop-opacity="1" stop-color="rgb(11.663818%, 55.224609%, 90.365601%)" offset="0.199219"/><stop stop-opacity="1" stop-color="rgb(11.616516%, 55.374146%, 90.185547%)" offset="0.203125"/><stop stop-opacity="1" stop-color="rgb(11.569214%, 55.523682%, 90.007019%)" offset="0.207031"/><stop stop-opacity="1" stop-color="rgb(11.521912%, 55.674744%, 89.826965%)" offset="0.210938"/><stop stop-opacity="1" stop-color="rgb(11.474609%, 55.82428%, 89.648438%)" offset="0.214844"/><stop stop-opacity="1" stop-color="rgb(11.427307%, 55.973816%, 89.468384%)" offset="0.21875"/><stop stop-opacity="1" stop-color="rgb(11.380005%, 56.123352%, 89.289856%)" offset="0.222656"/><stop stop-opacity="1" stop-color="rgb(11.332703%, 56.274414%, 89.109802%)" offset="0.226562"/><stop stop-opacity="1" stop-color="rgb(11.286926%, 56.42395%, 88.931274%)" offset="0.230469"/><stop stop-opacity="1" stop-color="rgb(11.239624%, 56.573486%, 88.751221%)" offset="0.234375"/><stop stop-opacity="1" stop-color="rgb(11.192322%, 56.724548%, 88.572693%)" offset="0.238281"/><stop stop-opacity="1" stop-color="rgb(11.14502%, 56.874084%, 88.392639%)" offset="0.242188"/><stop stop-opacity="1" stop-color="rgb(11.097717%, 57.023621%, 88.214111%)" offset="0.246094"/><stop stop-opacity="1" stop-color="rgb(11.050415%, 57.174683%, 88.034058%)" offset="0.25"/><stop stop-opacity="1" stop-color="rgb(10.980225%, 57.398987%, 87.765503%)" offset="0.253906"/><stop stop-opacity="1" stop-color="rgb(10.88562%, 57.698059%, 87.406921%)" offset="0.261719"/><stop stop-opacity="1" stop-color="rgb(10.791016%, 57.998657%, 87.04834%)" offset="0.269531"/><stop stop-opacity="1" stop-color="rgb(10.696411%, 58.299255%, 86.689758%)" offset="0.277344"/><stop stop-opacity="1" stop-color="rgb(10.601807%, 58.598328%, 86.331177%)" offset="0.285156"/><stop stop-opacity="1" stop-color="rgb(10.507202%, 58.898926%, 85.972595%)" offset="0.292969"/><stop stop-opacity="1" stop-color="rgb(10.412598%, 59.199524%, 85.614014%)" offset="0.300781"/><stop stop-opacity="1" stop-color="rgb(10.317993%, 59.498596%, 85.255432%)" offset="0.308594"/><stop stop-opacity="1" stop-color="rgb(10.223389%, 59.799194%, 84.896851%)" offset="0.316406"/><stop stop-opacity="1" stop-color="rgb(10.128784%, 60.098267%, 84.538269%)" offset="0.324219"/><stop stop-opacity="1" stop-color="rgb(10.03418%, 60.398865%, 84.179688%)" offset="0.332031"/><stop stop-opacity="1" stop-color="rgb(9.939575%, 60.699463%, 83.821106%)" offset="0.339844"/><stop stop-opacity="1" stop-color="rgb(9.844971%, 60.998535%, 83.462524%)" offset="0.347656"/><stop stop-opacity="1" stop-color="rgb(9.750366%, 61.299133%, 83.102417%)" offset="0.355469"/><stop stop-opacity="1" stop-color="rgb(9.655762%, 61.598206%, 82.743835%)" offset="0.363281"/><stop stop-opacity="1" stop-color="rgb(9.561157%, 61.898804%, 82.385254%)" offset="0.371094"/><stop stop-opacity="1" stop-color="rgb(9.466553%, 62.199402%, 82.026672%)" offset="0.378906"/><stop stop-opacity="1" stop-color="rgb(9.371948%, 62.498474%, 81.668091%)" offset="0.386719"/><stop stop-opacity="1" stop-color="rgb(9.27887%, 62.799072%, 81.309509%)" offset="0.394531"/><stop stop-opacity="1" stop-color="rgb(9.184265%, 63.098145%, 80.950928%)" offset="0.402344"/><stop stop-opacity="1" stop-color="rgb(9.089661%, 63.398743%, 80.592346%)" offset="0.410156"/><stop stop-opacity="1" stop-color="rgb(8.995056%, 63.699341%, 80.233765%)" offset="0.417969"/><stop stop-opacity="1" stop-color="rgb(8.900452%, 63.998413%, 79.875183%)" offset="0.425781"/><stop stop-opacity="1" stop-color="rgb(8.805847%, 64.299011%, 79.516602%)" offset="0.433594"/><stop stop-opacity="1" stop-color="rgb(8.711243%, 64.598083%, 79.15802%)" offset="0.441406"/><stop stop-opacity="1" stop-color="rgb(8.616638%, 64.898682%, 78.799438%)" offset="0.449219"/><stop stop-opacity="1" stop-color="rgb(8.522034%, 65.19928%, 78.440857%)" offset="0.457031"/><stop stop-opacity="1" stop-color="rgb(8.427429%, 65.498352%, 78.082275%)" offset="0.464844"/><stop stop-opacity="1" stop-color="rgb(8.332825%, 65.79895%, 77.723694%)" offset="0.472656"/><stop stop-opacity="1" stop-color="rgb(8.23822%, 66.098022%, 77.365112%)" offset="0.480469"/><stop stop-opacity="1" stop-color="rgb(8.143616%, 66.398621%, 77.006531%)" offset="0.488281"/><stop stop-opacity="1" stop-color="rgb(8.049011%, 66.699219%, 76.647949%)" offset="0.496094"/><stop stop-opacity="1" stop-color="rgb(7.977295%, 66.923523%, 76.379395%)" offset="0.503906"/><stop stop-opacity="1" stop-color="rgb(7.929993%, 67.074585%, 76.200867%)" offset="0.507812"/><stop stop-opacity="1" stop-color="rgb(7.88269%, 67.224121%, 76.020813%)" offset="0.511719"/><stop stop-opacity="1" stop-color="rgb(7.835388%, 67.373657%, 75.842285%)" offset="0.515625"/><stop stop-opacity="1" stop-color="rgb(7.788086%, 67.524719%, 75.662231%)" offset="0.519531"/><stop stop-opacity="1" stop-color="rgb(7.740784%, 67.674255%, 75.483704%)" offset="0.523438"/><stop stop-opacity="1" stop-color="rgb(7.693481%, 67.823792%, 75.30365%)" offset="0.527344"/><stop stop-opacity="1" stop-color="rgb(7.646179%, 67.973328%, 75.125122%)" offset="0.53125"/><stop stop-opacity="1" stop-color="rgb(7.598877%, 68.12439%, 74.945068%)" offset="0.535156"/><stop stop-opacity="1" stop-color="rgb(7.551575%, 68.273926%, 74.766541%)" offset="0.539062"/><stop stop-opacity="1" stop-color="rgb(7.504272%, 68.423462%, 74.586487%)" offset="0.542969"/><stop stop-opacity="1" stop-color="rgb(7.45697%, 68.574524%, 74.407959%)" offset="0.546875"/><stop stop-opacity="1" stop-color="rgb(7.409668%, 68.72406%, 74.227905%)" offset="0.550781"/><stop stop-opacity="1" stop-color="rgb(7.363892%, 68.873596%, 74.049377%)" offset="0.554688"/><stop stop-opacity="1" stop-color="rgb(7.316589%, 69.024658%, 73.869324%)" offset="0.558594"/><stop stop-opacity="1" stop-color="rgb(7.269287%, 69.174194%, 73.690796%)" offset="0.5625"/><stop stop-opacity="1" stop-color="rgb(7.221985%, 69.32373%, 73.510742%)" offset="0.566406"/><stop stop-opacity="1" stop-color="rgb(7.174683%, 69.473267%, 73.332214%)" offset="0.570312"/><stop stop-opacity="1" stop-color="rgb(7.12738%, 69.624329%, 73.152161%)" offset="0.574219"/><stop stop-opacity="1" stop-color="rgb(7.080078%, 69.773865%, 72.973633%)" offset="0.578125"/><stop stop-opacity="1" stop-color="rgb(7.032776%, 69.923401%, 72.793579%)" offset="0.582031"/><stop stop-opacity="1" stop-color="rgb(6.985474%, 70.074463%, 72.615051%)" offset="0.585938"/><stop stop-opacity="1" stop-color="rgb(6.938171%, 70.223999%, 72.434998%)" offset="0.589844"/><stop stop-opacity="1" stop-color="rgb(6.890869%, 70.373535%, 72.25647%)" offset="0.59375"/><stop stop-opacity="1" stop-color="rgb(6.843567%, 70.524597%, 72.076416%)" offset="0.597656"/><stop stop-opacity="1" stop-color="rgb(6.796265%, 70.674133%, 71.897888%)" offset="0.601562"/><stop stop-opacity="1" stop-color="rgb(6.748962%, 70.823669%, 71.717834%)" offset="0.605469"/><stop stop-opacity="1" stop-color="rgb(6.70166%, 70.974731%, 71.539307%)" offset="0.609375"/><stop stop-opacity="1" stop-color="rgb(6.654358%, 71.124268%, 71.359253%)" offset="0.613281"/><stop stop-opacity="1" stop-color="rgb(6.607056%, 71.273804%, 71.180725%)" offset="0.617188"/><stop stop-opacity="1" stop-color="rgb(6.559753%, 71.42334%, 71.000671%)" offset="0.621094"/><stop stop-opacity="1" stop-color="rgb(6.512451%, 71.574402%, 70.822144%)" offset="0.625"/><stop stop-opacity="1" stop-color="rgb(6.442261%, 71.798706%, 70.552063%)" offset="0.628906"/><stop stop-opacity="1" stop-color="rgb(6.347656%, 72.099304%, 70.193481%)" offset="0.636719"/><stop stop-opacity="1" stop-color="rgb(6.253052%, 72.398376%, 69.8349%)" offset="0.644531"/><stop stop-opacity="1" stop-color="rgb(6.158447%, 72.698975%, 69.476318%)" offset="0.652344"/><stop stop-opacity="1" stop-color="rgb(6.063843%, 72.998047%, 69.117737%)" offset="0.660156"/><stop stop-opacity="1" stop-color="rgb(5.969238%, 73.298645%, 68.759155%)" offset="0.667969"/><stop stop-opacity="1" stop-color="rgb(5.874634%, 73.599243%, 68.400574%)" offset="0.675781"/><stop stop-opacity="1" stop-color="rgb(5.780029%, 73.898315%, 68.041992%)" offset="0.683594"/><stop stop-opacity="1" stop-color="rgb(5.685425%, 74.198914%, 67.683411%)" offset="0.691406"/><stop stop-opacity="1" stop-color="rgb(5.59082%, 74.499512%, 67.324829%)" offset="0.699219"/><stop stop-opacity="1" stop-color="rgb(5.496216%, 74.798584%, 66.966248%)" offset="0.707031"/><stop stop-opacity="1" stop-color="rgb(5.401611%, 75.099182%, 66.607666%)" offset="0.714844"/><stop stop-opacity="1" stop-color="rgb(5.308533%, 75.398254%, 66.249084%)" offset="0.722656"/><stop stop-opacity="1" stop-color="rgb(5.213928%, 75.698853%, 65.890503%)" offset="0.730469"/><stop stop-opacity="1" stop-color="rgb(5.119324%, 75.999451%, 65.531921%)" offset="0.738281"/><stop stop-opacity="1" stop-color="rgb(5.024719%, 76.298523%, 65.17334%)" offset="0.746094"/><stop stop-opacity="1" stop-color="rgb(4.953003%, 76.524353%, 64.904785%)" offset="0.753906"/><stop stop-opacity="1" stop-color="rgb(4.905701%, 76.673889%, 64.726257%)" offset="0.757812"/><stop stop-opacity="1" stop-color="rgb(4.858398%, 76.823425%, 64.546204%)" offset="0.761719"/><stop stop-opacity="1" stop-color="rgb(4.811096%, 76.974487%, 64.367676%)" offset="0.765625"/><stop stop-opacity="1" stop-color="rgb(4.763794%, 77.124023%, 64.187622%)" offset="0.769531"/><stop stop-opacity="1" stop-color="rgb(4.716492%, 77.27356%, 64.009094%)" offset="0.773438"/><stop stop-opacity="1" stop-color="rgb(4.669189%, 77.424622%, 63.829041%)" offset="0.777344"/><stop stop-opacity="1" stop-color="rgb(4.621887%, 77.574158%, 63.650513%)" offset="0.78125"/><stop stop-opacity="1" stop-color="rgb(4.574585%, 77.723694%, 63.470459%)" offset="0.785156"/><stop stop-opacity="1" stop-color="rgb(4.527283%, 77.874756%, 63.291931%)" offset="0.789062"/><stop stop-opacity="1" stop-color="rgb(4.47998%, 78.024292%, 63.111877%)" offset="0.792969"/><stop stop-opacity="1" stop-color="rgb(4.432678%, 78.173828%, 62.93335%)" offset="0.796875"/><stop stop-opacity="1" stop-color="rgb(4.385376%, 78.323364%, 62.753296%)" offset="0.800781"/><stop stop-opacity="1" stop-color="rgb(4.338074%, 78.474426%, 62.574768%)" offset="0.804688"/><stop stop-opacity="1" stop-color="rgb(4.290771%, 78.623962%, 62.394714%)" offset="0.808594"/><stop stop-opacity="1" stop-color="rgb(4.243469%, 78.773499%, 62.216187%)" offset="0.8125"/><stop stop-opacity="1" stop-color="rgb(4.173279%, 78.999329%, 61.946106%)" offset="0.816406"/><stop stop-opacity="1" stop-color="rgb(4.078674%, 79.298401%, 61.587524%)" offset="0.824219"/><stop stop-opacity="1" stop-color="rgb(3.98407%, 79.598999%, 61.228943%)" offset="0.832031"/><stop stop-opacity="1" stop-color="rgb(3.889465%, 79.898071%, 60.870361%)" offset="0.839844"/><stop stop-opacity="1" stop-color="rgb(3.794861%, 80.198669%, 60.51178%)" offset="0.847656"/><stop stop-opacity="1" stop-color="rgb(3.700256%, 80.499268%, 60.153198%)" offset="0.855469"/><stop stop-opacity="1" stop-color="rgb(3.605652%, 80.79834%, 59.794617%)" offset="0.863281"/><stop stop-opacity="1" stop-color="rgb(3.511047%, 81.098938%, 59.436035%)" offset="0.871094"/><stop stop-opacity="1" stop-color="rgb(3.440857%, 81.324768%, 59.16748%)" offset="0.878906"/><stop stop-opacity="1" stop-color="rgb(3.393555%, 81.474304%, 58.987427%)" offset="0.882812"/><stop stop-opacity="1" stop-color="rgb(3.346252%, 81.62384%, 58.808899%)" offset="0.886719"/><stop stop-opacity="1" stop-color="rgb(3.29895%, 81.773376%, 58.628845%)" offset="0.890625"/><stop stop-opacity="1" stop-color="rgb(3.251648%, 81.924438%, 58.450317%)" offset="0.894531"/><stop stop-opacity="1" stop-color="rgb(3.204346%, 82.073975%, 58.270264%)" offset="0.898438"/><stop stop-opacity="1" stop-color="rgb(3.157043%, 82.223511%, 58.091736%)" offset="0.902344"/><stop stop-opacity="1" stop-color="rgb(3.109741%, 82.374573%, 57.911682%)" offset="0.90625"/><stop stop-opacity="1" stop-color="rgb(3.039551%, 82.598877%, 57.643127%)" offset="0.910156"/><stop stop-opacity="1" stop-color="rgb(2.944946%, 82.899475%, 57.284546%)" offset="0.917969"/><stop stop-opacity="1" stop-color="rgb(2.850342%, 83.198547%, 56.925964%)" offset="0.925781"/><stop stop-opacity="1" stop-color="rgb(2.755737%, 83.499146%, 56.567383%)" offset="0.933594"/><stop stop-opacity="1" stop-color="rgb(2.684021%, 83.72345%, 56.298828%)" offset="0.941406"/><stop stop-opacity="1" stop-color="rgb(2.636719%, 83.874512%, 56.118774%)" offset="0.945312"/><stop stop-opacity="1" stop-color="rgb(2.589417%, 84.024048%, 55.940247%)" offset="0.949219"/><stop stop-opacity="1" stop-color="rgb(2.542114%, 84.173584%, 55.760193%)" offset="0.953125"/><stop stop-opacity="1" stop-color="rgb(2.471924%, 84.399414%, 55.491638%)" offset="0.957031"/><stop stop-opacity="1" stop-color="rgb(2.377319%, 84.698486%, 55.133057%)" offset="0.964844"/><stop stop-opacity="1" stop-color="rgb(2.305603%, 84.924316%, 54.864502%)" offset="0.972656"/><stop stop-opacity="1" stop-color="rgb(2.258301%, 85.073853%, 54.684448%)" offset="0.976562"/><stop stop-opacity="1" stop-color="rgb(2.18811%, 85.298157%, 54.415894%)" offset="0.980469"/><stop stop-opacity="1" stop-color="rgb(2.116394%, 85.523987%, 54.147339%)" offset="0.988281"/><stop stop-opacity="1" stop-color="rgb(2.046204%, 85.748291%, 53.877258%)" offset="0.992188"/><stop stop-opacity="1" stop-color="rgb(1.998901%, 85.899353%, 53.69873%)" offset="1"/></radialGradient><clipPath id="d0a6bc0123"><path d="M 7.078125 8.332031 L 82.828125 8.332031 L 82.828125 70 L 7.078125 70 Z M 7.078125 8.332031 " clip-rule="nonzero"/></clipPath></defs><rect x="-9" fill="url(#8e48a89ee3)" width="108" y="-9" height="107.999999"/><path fill="#ffffff" d="M 24.851562 71.800781 C 22.316406 71.800781 20.257812 73.863281 20.257812 76.394531 C 20.257812 78.929688 22.316406 80.988281 24.851562 80.988281 C 27.382812 80.988281 29.445312 78.929688 29.445312 76.394531 C 29.445312 73.863281 27.382812 71.800781 24.851562 71.800781 Z M 24.851562 78.949219 C 23.441406 78.949219 22.296875 77.804688 22.296875 76.394531 C 22.296875 74.988281 23.441406 73.84375 24.851562 73.84375 C 26.257812 73.84375 27.40625 74.988281 27.40625 76.394531 C 27.40625 77.804688 26.257812 78.949219 24.851562 78.949219 Z M 24.851562 78.949219 " fill-opacity="1" fill-rule="nonzero"/><path fill="#ffffff" d="M 49.359375 71.800781 C 46.824219 71.800781 44.765625 73.863281 44.765625 76.394531 C 44.765625 78.929688 46.824219 80.988281 49.359375 80.988281 C 51.894531 80.988281 53.953125 78.929688 53.953125 76.394531 C 53.953125 73.863281 51.894531 71.800781 49.359375 71.800781 Z M 49.359375 78.949219 C 47.953125 78.949219 46.804688 77.804688 46.804688 76.394531 C 46.804688 74.988281 47.953125 73.84375 49.359375 73.84375 C 50.765625 73.84375 51.914062 74.988281 51.914062 76.394531 C 51.914062 77.804688 50.765625 78.949219 49.359375 78.949219 Z M 49.359375 78.949219 " fill-opacity="1" fill-rule="nonzero"/><path fill="#ffffff" d="M 69.65625 49.398438 L 70.097656 49.398438 C 70.523438 49.398438 70.871094 49.746094 70.871094 50.171875 C 70.871094 50.738281 71.328125 51.191406 71.890625 51.191406 C 72.457031 51.191406 72.914062 50.738281 72.914062 50.171875 C 72.914062 48.898438 72.0625 47.820312 70.898438 47.472656 L 70.898438 47.117188 C 70.898438 46.554688 70.441406 46.097656 69.878906 46.097656 C 69.3125 46.097656 68.855469 46.554688 68.855469 47.117188 L 68.855469 47.472656 C 67.691406 47.820312 66.84375 48.898438 66.84375 50.171875 L 66.84375 50.234375 C 66.84375 51.332031 67.488281 52.335938 68.488281 52.789062 L 70.421875 53.671875 C 70.695312 53.792969 70.871094 54.070312 70.871094 54.371094 C 70.871094 54.839844 70.488281 55.226562 70.015625 55.226562 L 69.996094 55.226562 C 69.957031 55.21875 69.917969 55.21875 69.878906 55.21875 C 69.835938 55.21875 69.796875 55.21875 69.757812 55.226562 L 69.738281 55.226562 C 69.265625 55.226562 68.882812 54.839844 68.882812 54.371094 L 68.882812 54.300781 C 68.882812 53.738281 68.425781 53.28125 67.863281 53.28125 C 67.300781 53.28125 66.84375 53.738281 66.84375 54.300781 L 66.84375 54.371094 C 66.84375 55.660156 67.691406 56.753906 68.855469 57.128906 L 68.855469 57.578125 C 68.855469 58.140625 69.3125 58.597656 69.878906 58.597656 C 70.441406 58.597656 70.898438 58.140625 70.898438 57.578125 L 70.898438 57.128906 C 72.066406 56.753906 72.914062 55.660156 72.914062 54.371094 C 72.914062 53.269531 72.265625 52.269531 71.265625 51.8125 L 69.332031 50.933594 C 69.058594 50.808594 68.882812 50.535156 68.882812 50.234375 L 68.882812 50.171875 C 68.882812 49.746094 69.230469 49.398438 69.65625 49.398438 Z M 69.65625 49.398438 " fill-opacity="1" fill-rule="nonzero"/><g clip-path="url(#d0a6bc0123)"><path fill="#ffffff" d="M 81.882812 8.332031 L 49.839844 8.332031 C 49.277344 8.332031 48.820312 8.789062 48.820312 9.355469 L 48.820312 36.992188 L 17.5 36.992188 L 17.242188 35.203125 C 17.039062 33.800781 16.339844 32.523438 15.269531 31.597656 C 14.203125 30.671875 12.835938 30.160156 11.421875 30.160156 L 8.105469 30.160156 C 7.542969 30.160156 7.085938 30.617188 7.085938 31.183594 C 7.085938 31.746094 7.542969 32.203125 8.105469 32.203125 L 11.421875 32.203125 C 12.34375 32.203125 13.238281 32.535156 13.933594 33.140625 C 14.632812 33.742188 15.089844 34.578125 15.21875 35.492188 L 19.335938 64.015625 C 19.554688 65.539062 20.316406 66.933594 21.480469 67.941406 C 22.648438 68.953125 24.136719 69.507812 25.675781 69.507812 L 55.621094 69.507812 C 56.183594 69.507812 56.640625 69.050781 56.640625 68.488281 C 56.640625 67.921875 56.183594 67.464844 55.621094 67.464844 L 25.675781 67.464844 C 24.628906 67.464844 23.613281 67.085938 22.820312 66.398438 C 22.023438 65.710938 21.503906 64.761719 21.355469 63.722656 L 21.058594 61.652344 L 55.308594 61.652344 C 55.796875 61.652344 56.214844 61.304688 56.3125 60.828125 L 58.75 48.496094 C 58.808594 48.507812 58.867188 48.511719 58.929688 48.511719 L 61.8125 48.511719 C 61.796875 48.546875 61.78125 48.578125 61.769531 48.609375 C 61.28125 49.660156 61.007812 50.78125 60.953125 51.933594 C 60.898438 53.128906 61.082031 54.308594 61.5 55.4375 C 61.914062 56.566406 62.542969 57.582031 63.359375 58.457031 C 64.152344 59.296875 65.085938 59.972656 66.136719 60.457031 C 67.191406 60.941406 68.308594 61.214844 69.464844 61.269531 C 69.601562 61.277344 69.742188 61.28125 69.882812 61.28125 C 70.933594 61.28125 71.96875 61.09375 72.96875 60.726562 C 74.097656 60.308594 75.113281 59.683594 75.988281 58.863281 C 76.828125 58.074219 77.503906 57.140625 77.988281 56.085938 C 78.472656 55.035156 78.746094 53.914062 78.800781 52.761719 C 78.855469 51.566406 78.671875 50.386719 78.257812 49.257812 C 78.164062 49.003906 78.058594 48.753906 77.941406 48.511719 L 81.882812 48.511719 C 82.445312 48.511719 82.902344 48.054688 82.902344 47.492188 L 82.902344 9.355469 C 82.902344 8.789062 82.445312 8.332031 81.882812 8.332031 Z M 54.472656 59.609375 L 20.761719 59.609375 L 17.792969 39.03125 L 58.539062 39.03125 Z M 76.132812 55.230469 C 75.363281 56.902344 73.988281 58.175781 72.261719 58.8125 C 70.535156 59.449219 68.664062 59.375 66.992188 58.601562 C 65.320312 57.832031 64.050781 56.457031 63.414062 54.730469 C 62.777344 53.003906 62.851562 51.132812 63.621094 49.460938 C 64.390625 47.792969 65.765625 46.519531 67.492188 45.882812 C 68.269531 45.597656 69.078125 45.453125 69.878906 45.453125 C 70.863281 45.453125 71.84375 45.667969 72.761719 46.089844 C 74.433594 46.863281 75.703125 48.238281 76.339844 49.964844 C 76.976562 51.691406 76.90625 53.558594 76.132812 55.230469 Z M 80.863281 46.472656 L 76.8125 46.472656 C 76.746094 46.472656 76.683594 46.480469 76.621094 46.492188 C 76.546875 46.40625 76.472656 46.320312 76.394531 46.238281 C 75.605469 45.394531 74.667969 44.722656 73.617188 44.238281 C 72.5625 43.75 71.445312 43.476562 70.292969 43.425781 C 69.097656 43.367188 67.917969 43.550781 66.785156 43.96875 C 65.65625 44.386719 64.640625 45.011719 63.769531 45.832031 C 63.550781 46.035156 63.34375 46.25 63.148438 46.472656 L 59.148438 46.472656 L 60.78125 38.210938 C 60.839844 37.910156 60.761719 37.601562 60.570312 37.363281 C 60.410156 37.171875 60.191406 37.046875 59.953125 37.007812 L 59.953125 36.1875 C 59.953125 35.625 59.496094 35.167969 58.929688 35.167969 L 54.140625 35.167969 C 53.574219 35.167969 53.117188 35.625 53.117188 36.1875 L 53.117188 36.992188 L 50.863281 36.992188 L 50.863281 10.375 L 80.863281 10.375 Z M 80.863281 46.472656 " fill-opacity="1" fill-rule="nonzero"/></g><path fill="#ffffff" d="M 54.136719 23.757812 L 58.929688 23.757812 C 59.496094 23.757812 59.953125 23.300781 59.953125 22.738281 L 59.953125 17.945312 C 59.953125 17.382812 59.496094 16.925781 58.929688 16.925781 L 54.136719 16.925781 C 53.574219 16.925781 53.117188 17.382812 53.117188 17.945312 L 53.117188 22.738281 C 53.117188 23.300781 53.574219 23.757812 54.136719 23.757812 Z M 55.160156 18.96875 L 57.910156 18.96875 L 57.910156 21.71875 L 55.160156 21.71875 Z M 55.160156 18.96875 " fill-opacity="1" fill-rule="nonzero"/><path fill="#ffffff" d="M 62.160156 17.429688 L 77.59375 17.429688 L 77.59375 19.472656 L 62.160156 19.472656 Z M 62.160156 17.429688 " fill-opacity="1" fill-rule="nonzero"/><path fill="#ffffff" d="M 62.160156 21.164062 L 70.382812 21.164062 L 70.382812 23.203125 L 62.160156 23.203125 Z M 62.160156 21.164062 " fill-opacity="1" fill-rule="nonzero"/><path fill="#ffffff" d="M 54.136719 32.878906 L 58.929688 32.878906 C 59.496094 32.878906 59.953125 32.421875 59.953125 31.859375 L 59.953125 27.066406 C 59.953125 26.503906 59.496094 26.046875 58.929688 26.046875 L 54.136719 26.046875 C 53.574219 26.046875 53.117188 26.503906 53.117188 27.066406 L 53.117188 31.859375 C 53.117188 32.421875 53.574219 32.878906 54.136719 32.878906 Z M 55.160156 28.089844 L 57.910156 28.089844 L 57.910156 30.839844 L 55.160156 30.839844 Z M 55.160156 28.089844 " fill-opacity="1" fill-rule="nonzero"/><path fill="#ffffff" d="M 62.160156 26.550781 L 77.59375 26.550781 L 77.59375 28.59375 L 62.160156 28.59375 Z M 62.160156 26.550781 " fill-opacity="1" fill-rule="nonzero"/><path fill="#ffffff" d="M 62.160156 30.285156 L 70.382812 30.285156 L 70.382812 32.324219 L 62.160156 32.324219 Z M 62.160156 30.285156 " fill-opacity="1" fill-rule="nonzero"/><path fill="#ffffff" d="M 62.160156 35.671875 L 77.59375 35.671875 L 77.59375 37.714844 L 62.160156 37.714844 Z M 62.160156 35.671875 " fill-opacity="1" fill-rule="nonzero"/><path fill="#ffffff" d="M 63.6875 39.40625 L 70.382812 39.40625 L 70.382812 41.445312 L 63.6875 41.445312 Z M 63.6875 39.40625 " fill-opacity="1" fill-rule="nonzero"/></svg>