<svg xmlns="http://www.w3.org/2000/svg" xmlns:xlink="http://www.w3.org/1999/xlink" width="40" zoomAndPan="magnify" viewBox="0 0 30 30.000001" height="40" preserveAspectRatio="xMidYMid meet" version="1.0"><defs><g/><clipPath id="6c9ce09302"><path d="M 0.484375 0 L 29.292969 0 L 29.292969 29.03125 L 0.484375 29.03125 Z M 0.484375 0 " clip-rule="nonzero"/></clipPath></defs><g fill="#000000" fill-opacity="1"><g transform="translate(9.742439, 11.758066)"><g><path d="M 0.1875 0 L 0.1875 -1.46875 L 0.328125 -1.46875 L 0.328125 -0.890625 L 0.359375 -0.890625 C 0.429688 -1.003906 0.535156 -1.0625 0.671875 -1.0625 C 0.796875 -1.0625 0.882812 -1.03125 0.9375 -0.96875 C 1 -0.90625 1.03125 -0.804688 1.03125 -0.671875 L 1.03125 0 L 0.875 0 L 0.875 -0.671875 C 0.875 -0.734375 0.863281 -0.78125 0.84375 -0.8125 C 0.832031 -0.851562 0.8125 -0.878906 0.78125 -0.890625 C 0.75 -0.910156 0.707031 -0.921875 0.65625 -0.921875 C 0.5625 -0.921875 0.484375 -0.890625 0.421875 -0.828125 C 0.359375 -0.773438 0.328125 -0.675781 0.328125 -0.53125 L 0.328125 0 Z M 0.1875 0 "/></g></g></g><g fill="#000000" fill-opacity="1"><g transform="translate(10.937977, 11.758066)"><g><path d="M 1 -0.484375 L 0.28125 -0.484375 C 0.28125 -0.359375 0.304688 -0.265625 0.359375 -0.203125 C 0.421875 -0.148438 0.5 -0.125 0.59375 -0.125 C 0.675781 -0.125 0.738281 -0.132812 0.78125 -0.15625 C 0.820312 -0.1875 0.859375 -0.226562 0.890625 -0.28125 L 0.90625 -0.28125 L 1 -0.21875 C 0.976562 -0.144531 0.929688 -0.0859375 0.859375 -0.046875 C 0.796875 -0.00390625 0.707031 0.015625 0.59375 0.015625 C 0.5 0.015625 0.414062 0 0.34375 -0.03125 C 0.269531 -0.0703125 0.210938 -0.132812 0.171875 -0.21875 C 0.128906 -0.300781 0.109375 -0.398438 0.109375 -0.515625 C 0.109375 -0.640625 0.128906 -0.738281 0.171875 -0.8125 C 0.210938 -0.894531 0.269531 -0.957031 0.34375 -1 C 0.414062 -1.039062 0.5 -1.0625 0.59375 -1.0625 C 0.726562 -1.0625 0.832031 -1.023438 0.90625 -0.953125 C 0.976562 -0.878906 1.015625 -0.765625 1.015625 -0.609375 C 1.015625 -0.554688 1.015625 -0.519531 1.015625 -0.5 Z M 0.859375 -0.609375 C 0.859375 -0.722656 0.832031 -0.804688 0.78125 -0.859375 C 0.738281 -0.910156 0.675781 -0.9375 0.59375 -0.9375 C 0.5 -0.9375 0.425781 -0.910156 0.375 -0.859375 C 0.320312 -0.804688 0.289062 -0.722656 0.28125 -0.609375 Z M 0.859375 -0.609375 "/></g></g></g><g fill="#000000" fill-opacity="1"><g transform="translate(12.045027, 11.758066)"><g><path d="M 0.421875 0.015625 C 0.335938 0.015625 0.273438 -0.00390625 0.234375 -0.046875 C 0.191406 -0.0859375 0.171875 -0.148438 0.171875 -0.234375 L 0.171875 -1.46875 L 0.328125 -1.46875 L 0.328125 -0.234375 C 0.328125 -0.191406 0.332031 -0.160156 0.34375 -0.140625 C 0.363281 -0.128906 0.394531 -0.125 0.4375 -0.125 C 0.457031 -0.125 0.476562 -0.125 0.5 -0.125 L 0.515625 -0.125 L 0.53125 0 C 0.519531 0 0.503906 0 0.484375 0 C 0.460938 0.0078125 0.441406 0.015625 0.421875 0.015625 Z M 0.421875 0.015625 "/></g></g></g><g fill="#000000" fill-opacity="1"><g transform="translate(12.609848, 11.758066)"><g><path d="M 0.421875 0.015625 C 0.335938 0.015625 0.273438 -0.00390625 0.234375 -0.046875 C 0.191406 -0.0859375 0.171875 -0.148438 0.171875 -0.234375 L 0.171875 -1.46875 L 0.328125 -1.46875 L 0.328125 -0.234375 C 0.328125 -0.191406 0.332031 -0.160156 0.34375 -0.140625 C 0.363281 -0.128906 0.394531 -0.125 0.4375 -0.125 C 0.457031 -0.125 0.476562 -0.125 0.5 -0.125 L 0.515625 -0.125 L 0.53125 0 C 0.519531 0 0.503906 0 0.484375 0 C 0.460938 0.0078125 0.441406 0.015625 0.421875 0.015625 Z M 0.421875 0.015625 "/></g></g></g><g fill="#000000" fill-opacity="1"><g transform="translate(13.17467, 11.758066)"><g><path d="M 0.59375 0.015625 C 0.5 0.015625 0.414062 -0.00390625 0.34375 -0.046875 C 0.269531 -0.0859375 0.210938 -0.144531 0.171875 -0.21875 C 0.128906 -0.300781 0.109375 -0.398438 0.109375 -0.515625 C 0.109375 -0.628906 0.128906 -0.726562 0.171875 -0.8125 C 0.210938 -0.894531 0.269531 -0.957031 0.34375 -1 C 0.414062 -1.039062 0.5 -1.0625 0.59375 -1.0625 C 0.695312 -1.0625 0.785156 -1.039062 0.859375 -1 C 0.929688 -0.957031 0.984375 -0.894531 1.015625 -0.8125 C 1.054688 -0.726562 1.078125 -0.628906 1.078125 -0.515625 C 1.078125 -0.398438 1.054688 -0.300781 1.015625 -0.21875 C 0.984375 -0.144531 0.929688 -0.0859375 0.859375 -0.046875 C 0.785156 -0.00390625 0.695312 0.015625 0.59375 0.015625 Z M 0.59375 -0.125 C 0.695312 -0.125 0.773438 -0.15625 0.828125 -0.21875 C 0.890625 -0.28125 0.921875 -0.378906 0.921875 -0.515625 C 0.921875 -0.660156 0.890625 -0.765625 0.828125 -0.828125 C 0.773438 -0.890625 0.695312 -0.921875 0.59375 -0.921875 C 0.488281 -0.921875 0.410156 -0.890625 0.359375 -0.828125 C 0.304688 -0.765625 0.28125 -0.660156 0.28125 -0.515625 C 0.28125 -0.378906 0.304688 -0.28125 0.359375 -0.21875 C 0.410156 -0.15625 0.488281 -0.125 0.59375 -0.125 Z M 0.59375 -0.125 "/></g></g></g><g fill="#000000" fill-opacity="1"><g transform="translate(14.366443, 11.758066)"><g><path d="M 0.515625 0 L 0.328125 0 L 0.0625 -1.046875 L 0.21875 -1.046875 L 0.421875 -0.1875 L 0.4375 -0.1875 L 0.6875 -1.046875 L 0.84375 -1.046875 L 1.09375 -0.1875 L 1.109375 -0.1875 L 1.3125 -1.046875 L 1.453125 -1.046875 L 1.203125 0 L 1 0 L 0.765625 -0.8125 L 0.75 -0.8125 Z M 0.515625 0 "/></g></g></g><g clip-path="url(#6c9ce09302)"><path fill="#84c61c" d="M 27.953125 16.875 C 28.089844 16.078125 29.292969 15.355469 29.292969 14.515625 C 29.292969 13.679688 28.089844 12.957031 27.953125 12.160156 C 27.8125 11.339844 28.699219 10.246094 28.425781 9.480469 C 28.144531 8.699219 26.773438 8.441406 26.371094 7.734375 C 25.964844 7.019531 26.425781 5.679688 25.910156 5.050781 C 25.386719 4.421875 24.011719 4.652344 23.390625 4.125 C 22.773438 3.597656 22.761719 2.175781 22.058594 1.761719 C 21.363281 1.351562 20.148438 2.050781 19.382812 1.765625 C 18.632812 1.488281 18.144531 0.15625 17.335938 0.0117188 C 16.554688 -0.128906 15.648438 0.949219 14.824219 0.949219 C 14 0.949219 13.097656 -0.128906 12.3125 0.0117188 C 11.503906 0.15625 11.015625 1.488281 10.265625 1.765625 C 9.5 2.050781 8.285156 1.351562 7.589844 1.761719 C 6.886719 2.175781 6.875 3.597656 6.257812 4.125 C 5.636719 4.652344 4.261719 4.421875 3.742188 5.050781 C 3.222656 5.679688 3.683594 7.019531 3.277344 7.734375 C 2.875 8.441406 1.503906 8.699219 1.222656 9.480469 C 0.949219 10.246094 1.835938 11.339844 1.695312 12.160156 C 1.558594 12.957031 0.355469 13.679688 0.355469 14.515625 C 0.355469 15.355469 1.558594 16.078125 1.695312 16.875 C 1.835938 17.695312 0.949219 18.789062 1.222656 19.554688 C 1.503906 20.335938 2.875 20.59375 3.277344 21.300781 C 3.683594 22.015625 3.222656 23.355469 3.742188 23.984375 C 4.261719 24.613281 5.636719 24.378906 6.257812 24.910156 C 6.875 25.4375 6.886719 26.859375 7.589844 27.273438 C 8.285156 27.683594 9.5 26.984375 10.265625 27.269531 C 11.015625 27.546875 11.503906 28.878906 12.3125 29.023438 C 13.097656 29.160156 14 28.082031 14.824219 28.082031 C 15.648438 28.082031 16.554688 29.160156 17.335938 29.023438 C 18.144531 28.878906 18.632812 27.546875 19.382812 27.269531 C 20.148438 26.984375 21.363281 27.683594 22.058594 27.273438 C 22.761719 26.859375 22.773438 25.4375 23.390625 24.910156 C 24.011719 24.378906 25.386719 24.613281 25.910156 23.984375 C 26.425781 23.355469 25.964844 22.015625 26.371094 21.300781 C 26.773438 20.59375 28.144531 20.335938 28.425781 19.554688 C 28.699219 18.789062 27.8125 17.695312 27.953125 16.875 " fill-opacity="1" fill-rule="nonzero"/></g><path fill="#ffffff" d="M 11.554688 20.355469 L 7.585938 16.023438 C 7.3125 15.746094 7.222656 15.03125 7.601562 14.511719 C 7.910156 14.09375 8.875 13.855469 9.390625 14.253906 C 9.40625 14.265625 12.683594 16.851562 12.683594 16.851562 C 12.6875 16.855469 12.691406 16.855469 12.695312 16.851562 L 20.042969 9.855469 C 20.554688 9.335938 21.378906 9.332031 21.898438 9.839844 C 22.425781 10.363281 22.433594 11.222656 21.914062 11.757812 L 13.828125 20.359375 C 13.199219 21 12.179688 21 11.554688 20.355469 " fill-opacity="1" fill-rule="nonzero"/></svg>