<svg xmlns="http://www.w3.org/2000/svg" xmlns:xlink="http://www.w3.org/1999/xlink" width="40" zoomAndPan="magnify" viewBox="0 0 30 30.000001" height="40" preserveAspectRatio="xMidYMid meet" version="1.0"><defs><g/><clipPath id="91fbfb8ca3"><path d="M 1 25 L 28 25 L 28 27.542969 L 1 27.542969 Z M 1 25 " clip-rule="nonzero"/></clipPath><clipPath id="594899986b"><path d="M 0.484375 12 L 29 12 L 29 15 L 0.484375 15 Z M 0.484375 12 " clip-rule="nonzero"/></clipPath><clipPath id="6ee5b5dcf7"><path d="M 0.484375 1.414062 L 29.515625 1.414062 L 29.515625 10 L 0.484375 10 Z M 0.484375 1.414062 " clip-rule="nonzero"/></clipPath></defs><path fill="#dddaeb" d="M 24.980469 14.683594 L 3.898438 14.683594 L 3.898438 25.6875 L 24.980469 25.6875 Z M 24.980469 14.683594 " fill-opacity="1" fill-rule="nonzero"/><path fill="#f9d9a0" d="M 17.628906 18.917969 L 17.628906 25.878906 C 17.628906 25.949219 17.617188 26.019531 17.589844 26.085938 C 17.5625 26.148438 17.523438 26.210938 17.472656 26.261719 C 17.421875 26.308594 17.363281 26.351562 17.296875 26.375 C 17.230469 26.402344 17.160156 26.417969 17.085938 26.417969 L 12.917969 26.417969 C 12.847656 26.417969 12.777344 26.402344 12.710938 26.375 C 12.644531 26.351562 12.585938 26.308594 12.535156 26.261719 C 12.484375 26.210938 12.445312 26.148438 12.417969 26.085938 C 12.390625 26.019531 12.378906 25.949219 12.378906 25.878906 L 12.378906 18.917969 C 12.378906 18.777344 12.4375 18.640625 12.539062 18.542969 C 12.640625 18.445312 12.777344 18.390625 12.917969 18.394531 L 17.085938 18.394531 C 17.230469 18.390625 17.367188 18.445312 17.46875 18.542969 C 17.566406 18.640625 17.625 18.777344 17.628906 18.917969 Z M 17.628906 18.917969 " fill-opacity="1" fill-rule="nonzero"/><path fill="#f9d9a0" d="M 17.628906 19.617188 L 17.628906 21.375 L 12.378906 25.75 L 12.378906 24.164062 Z M 17.628906 19.617188 " fill-opacity="1" fill-rule="nonzero"/><path fill="#f9d9a0" d="M 16.992188 18.394531 L 12.378906 21.867188 L 12.378906 21.121094 L 15.972656 18.394531 Z M 16.992188 18.394531 " fill-opacity="1" fill-rule="nonzero"/><path fill="#dddaeb" d="M 26.902344 5.980469 L 26.902344 13.414062 L 3.105469 13.414062 L 3.105469 6.125 L 11.058594 3.378906 L 19.617188 3.378906 Z M 26.902344 5.980469 " fill-opacity="1" fill-rule="nonzero"/><path fill="#dddaeb" d="M 3.101562 11.097656 L 15.175781 6.082031 L 26.902344 10.636719 L 26.902344 7.65625 L 15.003906 3.164062 L 2.960938 8.390625 Z M 3.101562 11.097656 " fill-opacity="1" fill-rule="nonzero"/><path fill="#fdc93f" d="M 5.460938 15.867188 L 2.914062 15.867188 L 2.914062 24.585938 L 5.460938 24.585938 Z M 5.460938 15.867188 " fill-opacity="1" fill-rule="nonzero"/><path fill="#ffffff" d="M 6.140625 23.976562 L 6.140625 25.386719 C 6.140625 25.546875 6.078125 25.703125 5.964844 25.820312 C 5.851562 25.933594 5.699219 26 5.535156 26.003906 L 2.925781 26.003906 C 2.898438 26.007812 2.871094 26 2.847656 25.988281 C 2.699219 25.96875 2.5625 25.898438 2.464844 25.789062 C 2.363281 25.675781 2.308594 25.535156 2.308594 25.386719 L 2.308594 23.976562 C 2.3125 23.8125 2.378906 23.660156 2.492188 23.546875 C 2.609375 23.433594 2.765625 23.371094 2.925781 23.371094 L 5.535156 23.371094 C 5.617188 23.371094 5.695312 23.386719 5.769531 23.417969 C 5.839844 23.449219 5.910156 23.492188 5.964844 23.550781 C 6.019531 23.605469 6.066406 23.671875 6.09375 23.746094 C 6.125 23.816406 6.140625 23.894531 6.140625 23.976562 Z M 6.140625 23.976562 " fill-opacity="1" fill-rule="nonzero"/><path fill="#ffffff" d="M 6.140625 14.859375 L 6.140625 16.269531 C 6.140625 16.347656 6.125 16.425781 6.09375 16.5 C 6.066406 16.574219 6.019531 16.640625 5.964844 16.695312 C 5.910156 16.75 5.839844 16.796875 5.769531 16.828125 C 5.695312 16.855469 5.617188 16.871094 5.535156 16.871094 L 2.925781 16.871094 C 2.765625 16.871094 2.609375 16.808594 2.492188 16.699219 C 2.378906 16.585938 2.3125 16.429688 2.308594 16.269531 L 2.308594 14.859375 C 2.3125 14.699219 2.378906 14.542969 2.492188 14.429688 C 2.609375 14.320312 2.765625 14.253906 2.925781 14.257812 L 5.535156 14.257812 C 5.617188 14.257812 5.695312 14.273438 5.769531 14.300781 C 5.839844 14.332031 5.910156 14.375 5.964844 14.433594 C 6.019531 14.488281 6.066406 14.554688 6.09375 14.628906 C 6.125 14.703125 6.140625 14.78125 6.140625 14.859375 Z M 6.140625 14.859375 " fill-opacity="1" fill-rule="nonzero"/><path fill="#fdc93f" d="M 10.671875 15.644531 L 8.128906 15.644531 L 8.128906 24.363281 L 10.671875 24.363281 Z M 10.671875 15.644531 " fill-opacity="1" fill-rule="nonzero"/><path fill="#ffffff" d="M 11.296875 23.976562 L 11.296875 25.386719 C 11.292969 25.550781 11.226562 25.703125 11.113281 25.820312 C 10.996094 25.933594 10.839844 26 10.675781 26.003906 L 8.066406 26.003906 C 8.039062 26.007812 8.011719 26 7.988281 25.988281 C 7.839844 25.96875 7.703125 25.898438 7.601562 25.789062 C 7.503906 25.675781 7.449219 25.535156 7.445312 25.386719 L 7.445312 23.976562 C 7.449219 23.8125 7.515625 23.660156 7.632812 23.546875 C 7.75 23.433594 7.90625 23.371094 8.066406 23.371094 L 10.675781 23.371094 C 10.839844 23.371094 10.992188 23.433594 11.109375 23.546875 C 11.226562 23.660156 11.292969 23.8125 11.296875 23.976562 Z M 11.296875 23.976562 " fill-opacity="1" fill-rule="nonzero"/><path fill="#ffffff" d="M 11.296875 14.859375 L 11.296875 16.269531 C 11.292969 16.429688 11.226562 16.585938 11.109375 16.699219 C 10.992188 16.808594 10.839844 16.871094 10.675781 16.871094 L 8.066406 16.871094 C 7.90625 16.871094 7.75 16.808594 7.632812 16.699219 C 7.515625 16.585938 7.449219 16.429688 7.445312 16.269531 L 7.445312 14.859375 C 7.449219 14.695312 7.515625 14.542969 7.632812 14.429688 C 7.75 14.316406 7.90625 14.253906 8.066406 14.257812 L 10.675781 14.257812 C 10.839844 14.253906 10.992188 14.320312 11.109375 14.429688 C 11.226562 14.542969 11.292969 14.699219 11.296875 14.859375 Z M 11.296875 14.859375 " fill-opacity="1" fill-rule="nonzero"/><path fill="#fdc93f" d="M 22.027344 15.644531 L 19.480469 15.644531 L 19.480469 24.363281 L 22.027344 24.363281 Z M 22.027344 15.644531 " fill-opacity="1" fill-rule="nonzero"/><path fill="#ffffff" d="M 22.941406 23.976562 L 22.941406 25.386719 C 22.941406 25.550781 22.875 25.703125 22.757812 25.820312 C 22.640625 25.933594 22.484375 26 22.320312 26.003906 L 19.710938 26.003906 C 19.683594 26.007812 19.65625 26 19.632812 25.988281 C 19.488281 25.96875 19.351562 25.898438 19.257812 25.785156 C 19.160156 25.675781 19.105469 25.53125 19.109375 25.386719 L 19.109375 23.976562 C 19.109375 23.894531 19.125 23.816406 19.152344 23.746094 C 19.183594 23.671875 19.230469 23.605469 19.285156 23.550781 C 19.339844 23.492188 19.40625 23.449219 19.480469 23.417969 C 19.554688 23.386719 19.632812 23.371094 19.710938 23.371094 L 22.320312 23.371094 C 22.484375 23.371094 22.640625 23.433594 22.757812 23.546875 C 22.871094 23.660156 22.9375 23.8125 22.941406 23.976562 Z M 22.941406 23.976562 " fill-opacity="1" fill-rule="nonzero"/><path fill="#ffffff" d="M 22.941406 14.859375 L 22.941406 16.269531 C 22.9375 16.429688 22.871094 16.585938 22.757812 16.699219 C 22.640625 16.808594 22.484375 16.871094 22.320312 16.871094 L 19.710938 16.871094 C 19.632812 16.871094 19.554688 16.855469 19.480469 16.828125 C 19.40625 16.796875 19.339844 16.75 19.285156 16.695312 C 19.230469 16.640625 19.183594 16.574219 19.152344 16.5 C 19.125 16.425781 19.109375 16.347656 19.109375 16.269531 L 19.109375 14.859375 C 19.109375 14.78125 19.125 14.703125 19.152344 14.628906 C 19.183594 14.554688 19.230469 14.488281 19.285156 14.433594 C 19.339844 14.375 19.40625 14.332031 19.480469 14.300781 C 19.554688 14.273438 19.632812 14.257812 19.710938 14.257812 L 22.320312 14.257812 C 22.484375 14.253906 22.640625 14.316406 22.757812 14.429688 C 22.871094 14.542969 22.9375 14.695312 22.941406 14.859375 Z M 22.941406 14.859375 " fill-opacity="1" fill-rule="nonzero"/><path fill="#fdc93f" d="M 27.046875 15.539062 L 24.5 15.539062 L 24.5 24.261719 L 27.046875 24.261719 Z M 27.046875 15.539062 " fill-opacity="1" fill-rule="nonzero"/><path fill="#ffffff" d="M 27.699219 23.976562 L 27.699219 25.386719 C 27.695312 25.550781 27.628906 25.703125 27.515625 25.820312 C 27.398438 25.933594 27.242188 26 27.078125 26.003906 L 24.46875 26.003906 C 24.441406 26.007812 24.414062 26 24.390625 25.988281 C 24.246094 25.96875 24.109375 25.898438 24.011719 25.785156 C 23.917969 25.675781 23.863281 25.53125 23.867188 25.386719 L 23.867188 23.976562 C 23.867188 23.894531 23.882812 23.816406 23.910156 23.746094 C 23.941406 23.671875 23.984375 23.605469 24.042969 23.550781 C 24.097656 23.492188 24.164062 23.449219 24.238281 23.417969 C 24.3125 23.386719 24.390625 23.371094 24.46875 23.371094 L 27.078125 23.371094 C 27.242188 23.371094 27.398438 23.433594 27.511719 23.546875 C 27.628906 23.660156 27.695312 23.8125 27.699219 23.976562 Z M 27.699219 23.976562 " fill-opacity="1" fill-rule="nonzero"/><path fill="#ffffff" d="M 27.699219 14.859375 L 27.699219 16.269531 C 27.695312 16.429688 27.628906 16.585938 27.511719 16.699219 C 27.398438 16.808594 27.242188 16.871094 27.078125 16.871094 L 24.46875 16.871094 C 24.390625 16.871094 24.3125 16.855469 24.238281 16.828125 C 24.164062 16.796875 24.097656 16.75 24.042969 16.695312 C 23.984375 16.640625 23.941406 16.574219 23.910156 16.5 C 23.882812 16.425781 23.867188 16.347656 23.867188 16.269531 L 23.867188 14.859375 C 23.867188 14.78125 23.882812 14.703125 23.910156 14.628906 C 23.941406 14.554688 23.984375 14.488281 24.042969 14.433594 C 24.097656 14.375 24.164062 14.332031 24.238281 14.300781 C 24.3125 14.273438 24.390625 14.257812 24.46875 14.257812 L 27.078125 14.257812 C 27.242188 14.253906 27.398438 14.320312 27.511719 14.429688 C 27.628906 14.542969 27.695312 14.699219 27.699219 14.859375 Z M 27.699219 14.859375 " fill-opacity="1" fill-rule="nonzero"/><path fill="#fdc93f" d="M 4.679688 15.867188 L 2.914062 15.867188 L 2.914062 24.570312 L 4.679688 24.570312 Z M 4.679688 15.867188 " fill-opacity="1" fill-rule="nonzero"/><path fill="#ffffff" d="M 5.996094 23.976562 L 5.996094 25.371094 C 6 25.453125 5.984375 25.53125 5.953125 25.609375 C 5.921875 25.683594 5.875 25.753906 5.820312 25.808594 C 5.761719 25.867188 5.691406 25.914062 5.617188 25.945312 C 5.539062 25.976562 5.460938 25.988281 5.378906 25.988281 L 3.46875 25.988281 C 3.320312 25.96875 3.183594 25.898438 3.085938 25.789062 C 2.984375 25.675781 2.929688 25.535156 2.925781 25.386719 L 2.925781 23.976562 C 2.929688 23.8125 2.996094 23.660156 3.113281 23.546875 C 3.230469 23.433594 3.386719 23.371094 3.546875 23.371094 L 5.457031 23.371094 C 5.605469 23.386719 5.742188 23.457031 5.84375 23.570312 C 5.945312 23.679688 6 23.824219 5.996094 23.976562 Z M 5.996094 23.976562 " fill-opacity="1" fill-rule="nonzero"/><path fill="#ffffff" d="M 5.378906 23.976562 L 5.378906 25.371094 C 5.378906 25.453125 5.363281 25.53125 5.332031 25.609375 C 5.300781 25.683594 5.257812 25.753906 5.199219 25.808594 C 5.140625 25.867188 5.070312 25.914062 4.996094 25.945312 C 4.921875 25.976562 4.839844 25.988281 4.757812 25.988281 L 2.847656 25.988281 C 2.699219 25.96875 2.5625 25.898438 2.464844 25.789062 C 2.363281 25.675781 2.308594 25.535156 2.308594 25.386719 L 2.308594 23.976562 C 2.3125 23.8125 2.378906 23.660156 2.492188 23.546875 C 2.609375 23.433594 2.765625 23.371094 2.925781 23.371094 L 4.835938 23.371094 C 4.984375 23.386719 5.125 23.457031 5.222656 23.570312 C 5.324219 23.679688 5.378906 23.824219 5.378906 23.976562 Z M 5.378906 23.976562 " fill-opacity="1" fill-rule="nonzero"/><path fill="#ffffff" d="M 5.378906 14.859375 L 5.378906 16.253906 C 5.378906 16.335938 5.363281 16.417969 5.332031 16.492188 C 5.300781 16.566406 5.257812 16.636719 5.199219 16.695312 C 5.140625 16.75 5.070312 16.796875 4.996094 16.828125 C 4.921875 16.859375 4.839844 16.875 4.757812 16.871094 L 2.925781 16.871094 C 2.765625 16.871094 2.609375 16.808594 2.492188 16.699219 C 2.378906 16.585938 2.3125 16.429688 2.308594 16.269531 L 2.308594 14.859375 C 2.3125 14.699219 2.378906 14.542969 2.492188 14.429688 C 2.609375 14.320312 2.765625 14.253906 2.925781 14.257812 L 4.835938 14.257812 C 4.984375 14.273438 5.125 14.34375 5.222656 14.453125 C 5.324219 14.566406 5.378906 14.710938 5.378906 14.859375 Z M 5.378906 14.859375 " fill-opacity="1" fill-rule="nonzero"/><path fill="#fdc93f" d="M 9.894531 15.644531 L 8.128906 15.644531 L 8.128906 24.347656 L 9.894531 24.347656 Z M 9.894531 15.644531 " fill-opacity="1" fill-rule="nonzero"/><path fill="#ffffff" d="M 10.515625 23.976562 L 10.515625 25.371094 C 10.519531 25.453125 10.503906 25.53125 10.472656 25.609375 C 10.441406 25.683594 10.394531 25.753906 10.335938 25.808594 C 10.28125 25.867188 10.210938 25.914062 10.136719 25.945312 C 10.058594 25.976562 9.976562 25.988281 9.894531 25.988281 L 7.988281 25.988281 C 7.839844 25.96875 7.703125 25.898438 7.601562 25.789062 C 7.503906 25.675781 7.449219 25.535156 7.445312 25.386719 L 7.445312 23.976562 C 7.449219 23.8125 7.515625 23.660156 7.632812 23.546875 C 7.75 23.433594 7.90625 23.371094 8.066406 23.371094 L 9.976562 23.371094 C 10.125 23.386719 10.261719 23.457031 10.363281 23.570312 C 10.464844 23.679688 10.519531 23.824219 10.515625 23.976562 Z M 10.515625 23.976562 " fill-opacity="1" fill-rule="nonzero"/><path fill="#ffffff" d="M 10.515625 14.859375 L 10.515625 16.253906 C 10.519531 16.335938 10.503906 16.417969 10.472656 16.492188 C 10.441406 16.566406 10.394531 16.636719 10.335938 16.695312 C 10.28125 16.75 10.210938 16.796875 10.136719 16.828125 C 10.058594 16.859375 9.976562 16.875 9.894531 16.871094 L 8.066406 16.871094 C 7.90625 16.871094 7.75 16.808594 7.632812 16.699219 C 7.515625 16.585938 7.449219 16.429688 7.445312 16.269531 L 7.445312 14.859375 C 7.449219 14.695312 7.515625 14.542969 7.632812 14.429688 C 7.75 14.316406 7.90625 14.253906 8.066406 14.257812 L 9.976562 14.257812 C 10.125 14.273438 10.261719 14.34375 10.363281 14.453125 C 10.464844 14.566406 10.519531 14.710938 10.515625 14.859375 Z M 10.515625 14.859375 " fill-opacity="1" fill-rule="nonzero"/><path fill="#fdc93f" d="M 21.261719 15.644531 L 19.480469 15.644531 L 19.480469 24.347656 L 21.261719 24.347656 Z M 21.261719 15.644531 " fill-opacity="1" fill-rule="nonzero"/><path fill="#ffffff" d="M 22.164062 23.976562 L 22.164062 25.371094 C 22.164062 25.449219 22.148438 25.53125 22.121094 25.605469 C 22.089844 25.679688 22.046875 25.746094 21.992188 25.804688 C 21.933594 25.863281 21.867188 25.910156 21.792969 25.941406 C 21.71875 25.972656 21.640625 25.988281 21.558594 25.988281 L 19.632812 25.988281 C 19.488281 25.96875 19.351562 25.898438 19.253906 25.785156 C 19.160156 25.675781 19.105469 25.53125 19.109375 25.386719 L 19.109375 23.976562 C 19.109375 23.894531 19.125 23.816406 19.152344 23.746094 C 19.183594 23.671875 19.230469 23.605469 19.285156 23.550781 C 19.339844 23.492188 19.40625 23.449219 19.480469 23.417969 C 19.554688 23.386719 19.632812 23.371094 19.710938 23.371094 L 21.636719 23.371094 C 21.785156 23.390625 21.917969 23.464844 22.015625 23.574219 C 22.113281 23.683594 22.164062 23.828125 22.164062 23.976562 Z M 22.164062 23.976562 " fill-opacity="1" fill-rule="nonzero"/><path fill="#ffffff" d="M 22.164062 14.859375 L 22.164062 16.253906 C 22.164062 16.335938 22.148438 16.414062 22.121094 16.488281 C 22.089844 16.5625 22.046875 16.632812 21.992188 16.6875 C 21.933594 16.746094 21.867188 16.792969 21.792969 16.824219 C 21.71875 16.855469 21.640625 16.871094 21.558594 16.871094 L 19.710938 16.871094 C 19.632812 16.871094 19.554688 16.855469 19.480469 16.828125 C 19.40625 16.796875 19.339844 16.75 19.285156 16.695312 C 19.230469 16.640625 19.183594 16.574219 19.152344 16.5 C 19.125 16.425781 19.109375 16.347656 19.109375 16.269531 L 19.109375 14.859375 C 19.109375 14.78125 19.125 14.703125 19.152344 14.628906 C 19.183594 14.554688 19.230469 14.488281 19.285156 14.433594 C 19.339844 14.375 19.40625 14.332031 19.480469 14.300781 C 19.554688 14.273438 19.632812 14.257812 19.710938 14.257812 L 21.636719 14.257812 C 21.785156 14.273438 21.917969 14.347656 22.015625 14.457031 C 22.113281 14.570312 22.164062 14.710938 22.164062 14.859375 Z M 22.164062 14.859375 " fill-opacity="1" fill-rule="nonzero"/><path fill="#fdc93f" d="M 26.285156 15.539062 L 24.5 15.539062 L 24.5 24.246094 L 26.285156 24.246094 Z M 26.285156 15.539062 " fill-opacity="1" fill-rule="nonzero"/><path fill="#ffffff" d="M 26.921875 23.976562 L 26.921875 25.371094 C 26.921875 25.449219 26.90625 25.53125 26.878906 25.605469 C 26.847656 25.679688 26.804688 25.746094 26.746094 25.804688 C 26.691406 25.863281 26.625 25.910156 26.550781 25.941406 C 26.476562 25.972656 26.394531 25.988281 26.316406 25.988281 L 24.390625 25.988281 C 24.246094 25.96875 24.109375 25.898438 24.011719 25.785156 C 23.917969 25.675781 23.863281 25.53125 23.867188 25.386719 L 23.867188 23.976562 C 23.867188 23.894531 23.882812 23.816406 23.910156 23.746094 C 23.941406 23.671875 23.984375 23.605469 24.042969 23.550781 C 24.097656 23.492188 24.164062 23.449219 24.238281 23.417969 C 24.3125 23.386719 24.390625 23.371094 24.46875 23.371094 L 26.394531 23.371094 C 26.542969 23.390625 26.675781 23.464844 26.773438 23.574219 C 26.871094 23.683594 26.921875 23.828125 26.921875 23.976562 Z M 26.921875 23.976562 " fill-opacity="1" fill-rule="nonzero"/><path fill="#ffffff" d="M 26.921875 14.859375 L 26.921875 16.253906 C 26.921875 16.335938 26.90625 16.414062 26.878906 16.488281 C 26.847656 16.5625 26.804688 16.632812 26.746094 16.6875 C 26.691406 16.746094 26.625 16.792969 26.550781 16.824219 C 26.476562 16.855469 26.394531 16.871094 26.316406 16.871094 L 24.46875 16.871094 C 24.390625 16.871094 24.3125 16.855469 24.238281 16.828125 C 24.164062 16.796875 24.097656 16.75 24.042969 16.695312 C 23.984375 16.640625 23.941406 16.574219 23.910156 16.5 C 23.882812 16.425781 23.867188 16.347656 23.867188 16.269531 L 23.867188 14.859375 C 23.867188 14.78125 23.882812 14.703125 23.910156 14.628906 C 23.941406 14.554688 23.984375 14.488281 24.042969 14.433594 C 24.097656 14.375 24.164062 14.332031 24.238281 14.300781 C 24.3125 14.273438 24.390625 14.257812 24.46875 14.257812 L 26.394531 14.257812 C 26.542969 14.273438 26.675781 14.347656 26.773438 14.457031 C 26.871094 14.570312 26.921875 14.710938 26.921875 14.859375 Z M 26.921875 14.859375 " fill-opacity="1" fill-rule="nonzero"/><g clip-path="url(#91fbfb8ca3)"><path fill="#1f3f77" d="M 27.953125 25.804688 C 27.714844 26.191406 27.472656 26.5625 27.214844 26.910156 C 27.066406 27.113281 26.917969 27.316406 26.753906 27.519531 L 3.21875 27.519531 L 2.828125 26.964844 C 2.542969 26.574219 2.277344 26.167969 2.035156 25.75 C 1.941406 25.605469 1.867188 25.457031 1.777344 25.308594 L 27.324219 25.308594 C 27.390625 25.304688 27.453125 25.316406 27.511719 25.339844 C 27.574219 25.359375 27.628906 25.394531 27.675781 25.4375 C 27.75 25.472656 27.8125 25.523438 27.863281 25.585938 C 27.910156 25.652344 27.941406 25.726562 27.953125 25.804688 Z M 27.953125 25.804688 " fill-opacity="1" fill-rule="nonzero"/></g><g clip-path="url(#594899986b)"><path fill="#1f3f77" d="M 28.402344 13.074219 L 28.402344 14.054688 C 28.402344 14.136719 28.382812 14.21875 28.351562 14.296875 C 28.320312 14.371094 28.273438 14.441406 28.210938 14.496094 C 28.152344 14.554688 28.082031 14.601562 28.007812 14.628906 C 27.929688 14.660156 27.847656 14.675781 27.765625 14.675781 L 1.5625 14.675781 C 1.398438 14.675781 1.238281 14.609375 1.121094 14.492188 C 1.007812 14.378906 0.941406 14.21875 0.941406 14.054688 L 0.941406 13.074219 C 0.941406 12.910156 1.007812 12.75 1.121094 12.636719 C 1.238281 12.519531 1.398438 12.453125 1.5625 12.453125 L 27.765625 12.453125 C 27.847656 12.453125 27.929688 12.46875 28.007812 12.5 C 28.082031 12.527344 28.152344 12.574219 28.210938 12.632812 C 28.273438 12.6875 28.320312 12.757812 28.351562 12.832031 C 28.382812 12.910156 28.402344 12.992188 28.402344 13.074219 Z M 28.402344 13.074219 " fill-opacity="1" fill-rule="nonzero"/></g><g clip-path="url(#6ee5b5dcf7)"><path fill="#1f3f77" d="M 29.410156 8.394531 C 29.21875 8.777344 28.902344 9.070312 28.519531 9.21875 C 28.140625 9.371094 27.722656 9.367188 27.339844 9.214844 L 26.722656 8.976562 L 15.21875 4.574219 L 2.933594 9.109375 L 2.648438 9.214844 C 2.464844 9.289062 2.273438 9.328125 2.078125 9.332031 C 1.769531 9.339844 1.46875 9.253906 1.207031 9.085938 C 0.945312 8.917969 0.734375 8.671875 0.597656 8.378906 C 0.523438 8.191406 0.484375 7.988281 0.492188 7.78125 C 0.496094 7.578125 0.542969 7.375 0.628906 7.191406 C 0.710938 7.007812 0.832031 6.847656 0.980469 6.714844 C 1.128906 6.585938 1.300781 6.492188 1.488281 6.441406 L 2.933594 5.902344 L 10.890625 2.964844 L 14.644531 1.578125 C 15.027344 1.445312 15.441406 1.445312 15.824219 1.578125 L 19.433594 2.964844 L 26.722656 5.753906 L 28.535156 6.453125 C 28.71875 6.511719 28.890625 6.605469 29.035156 6.738281 C 29.183594 6.867188 29.300781 7.03125 29.382812 7.214844 C 29.464844 7.398438 29.511719 7.597656 29.515625 7.800781 C 29.519531 8.003906 29.484375 8.207031 29.410156 8.394531 Z M 29.410156 8.394531 " fill-opacity="1" fill-rule="nonzero"/></g><path fill="#1f3f77" d="M 8.882812 8.046875 L 10.253906 8.046875 C 11.011719 8.046875 11.296875 8.441406 11.296875 8.847656 C 11.304688 8.984375 11.273438 9.125 11.199219 9.246094 C 11.128906 9.367188 11.023438 9.460938 10.898438 9.523438 C 11.042969 9.578125 11.167969 9.675781 11.257812 9.800781 C 11.34375 9.929688 11.390625 10.082031 11.386719 10.234375 C 11.382812 10.371094 11.351562 10.503906 11.292969 10.625 C 11.238281 10.746094 11.152344 10.855469 11.050781 10.945312 C 10.949219 11.03125 10.828125 11.097656 10.699219 11.136719 C 10.570312 11.175781 10.433594 11.1875 10.300781 11.171875 L 8.882812 11.171875 Z M 10.175781 9.28125 C 10.496094 9.28125 10.628906 9.136719 10.628906 8.917969 C 10.628906 8.6875 10.457031 8.570312 10.195312 8.570312 L 9.546875 8.570312 L 9.546875 9.28125 Z M 9.546875 10.648438 L 10.160156 10.648438 C 10.527344 10.648438 10.691406 10.496094 10.691406 10.214844 C 10.691406 9.960938 10.527344 9.800781 10.15625 9.800781 L 9.546875 9.800781 Z M 9.546875 10.648438 " fill-opacity="1" fill-rule="nonzero"/><path fill="#1f3f77" d="M 12.566406 10.449219 L 12.324219 11.171875 L 11.65625 11.171875 L 12.722656 8.046875 L 13.570312 8.046875 L 14.683594 11.171875 L 13.96875 11.171875 L 13.714844 10.449219 Z M 13.566406 9.898438 C 13.34375 9.238281 13.203125 8.816406 13.125 8.535156 L 13.121094 8.535156 C 13.042969 8.84375 12.886719 9.332031 12.710938 9.898438 Z M 13.566406 9.898438 " fill-opacity="1" fill-rule="nonzero"/><path fill="#1f3f77" d="M 15.09375 11.171875 L 15.09375 8.046875 L 15.933594 8.046875 C 16.324219 8.75 17.050781 10.015625 17.191406 10.355469 L 17.203125 10.355469 C 17.167969 10.027344 17.167969 9.484375 17.167969 8.972656 L 17.167969 8.046875 L 17.78125 8.046875 L 17.78125 11.171875 L 16.984375 11.171875 C 16.648438 10.5625 15.84375 9.109375 15.691406 8.746094 L 15.683594 8.746094 C 15.707031 9.019531 15.710938 9.660156 15.710938 10.222656 L 15.710938 11.171875 Z M 15.09375 11.171875 " fill-opacity="1" fill-rule="nonzero"/><path fill="#1f3f77" d="M 18.542969 8.046875 L 19.210938 8.046875 L 19.210938 9.441406 C 19.417969 9.199219 20.0625 8.496094 20.457031 8.046875 L 21.273438 8.046875 L 20.011719 9.34375 L 21.316406 11.171875 L 20.503906 11.171875 L 19.542969 9.785156 L 19.210938 10.097656 L 19.210938 11.171875 L 18.542969 11.171875 Z M 18.542969 8.046875 " fill-opacity="1" fill-rule="nonzero"/><path fill="#1f3f77" d="M 8.679688 8.046875 L 10.046875 8.046875 C 10.804688 8.046875 11.09375 8.441406 11.09375 8.847656 C 11.101562 8.984375 11.066406 9.125 10.996094 9.246094 C 10.925781 9.367188 10.820312 9.460938 10.695312 9.523438 C 10.839844 9.578125 10.964844 9.675781 11.054688 9.800781 C 11.140625 9.929688 11.1875 10.082031 11.183594 10.234375 C 11.179688 10.371094 11.148438 10.503906 11.089844 10.625 C 11.03125 10.746094 10.949219 10.855469 10.847656 10.945312 C 10.746094 11.03125 10.625 11.097656 10.496094 11.136719 C 10.367188 11.175781 10.230469 11.1875 10.097656 11.171875 L 8.679688 11.171875 Z M 9.96875 9.28125 C 10.292969 9.28125 10.425781 9.136719 10.425781 8.917969 C 10.425781 8.6875 10.25 8.570312 9.988281 8.570312 L 9.34375 8.570312 L 9.34375 9.28125 Z M 9.34375 10.648438 L 9.957031 10.648438 C 10.320312 10.648438 10.488281 10.496094 10.488281 10.214844 C 10.488281 9.960938 10.324219 9.800781 9.953125 9.800781 L 9.34375 9.800781 Z M 9.34375 10.648438 " fill-opacity="1" fill-rule="nonzero"/><path fill="#1f3f77" d="M 12.363281 10.449219 L 12.117188 11.171875 L 11.453125 11.171875 L 12.515625 8.046875 L 13.367188 8.046875 L 14.476562 11.171875 L 13.765625 11.171875 L 13.507812 10.449219 Z M 13.363281 9.898438 C 13.140625 9.238281 13 8.816406 12.921875 8.535156 L 12.917969 8.535156 C 12.839844 8.84375 12.683594 9.332031 12.503906 9.898438 Z M 13.363281 9.898438 " fill-opacity="1" fill-rule="nonzero"/><path fill="#1f3f77" d="M 14.890625 11.171875 L 14.890625 8.046875 L 15.730469 8.046875 C 16.121094 8.75 16.847656 10.015625 16.988281 10.355469 L 16.996094 10.355469 C 16.964844 10.027344 16.964844 9.484375 16.964844 8.972656 L 16.964844 8.046875 L 17.578125 8.046875 L 17.578125 11.171875 L 16.78125 11.171875 C 16.445312 10.5625 15.640625 9.109375 15.488281 8.746094 L 15.480469 8.746094 C 15.5 9.019531 15.507812 9.660156 15.507812 10.222656 L 15.507812 11.171875 Z M 14.890625 11.171875 " fill-opacity="1" fill-rule="nonzero"/><path fill="#1f3f77" d="M 18.335938 8.046875 L 19.007812 8.046875 L 19.007812 9.441406 C 19.214844 9.199219 19.859375 8.496094 20.253906 8.046875 L 21.066406 8.046875 L 19.808594 9.34375 L 21.113281 11.171875 L 20.300781 11.171875 L 19.335938 9.785156 L 19.007812 10.097656 L 19.007812 11.171875 L 18.335938 11.171875 Z M 18.335938 8.046875 " fill-opacity="1" fill-rule="nonzero"/><path fill="#1f3f77" d="M 18.042969 18.300781 L 18.042969 18.648438 C 18.042969 18.675781 18.035156 18.699219 18.023438 18.722656 C 18.011719 18.746094 17.996094 18.769531 17.980469 18.785156 C 17.960938 18.804688 17.9375 18.816406 17.914062 18.828125 C 17.886719 18.835938 17.863281 18.839844 17.835938 18.839844 L 12.171875 18.839844 C 12.144531 18.839844 12.117188 18.835938 12.09375 18.828125 C 12.070312 18.816406 12.046875 18.804688 12.027344 18.785156 C 12.007812 18.769531 11.992188 18.746094 11.980469 18.722656 C 11.972656 18.699219 11.964844 18.675781 11.964844 18.648438 L 11.964844 18.300781 C 11.964844 18.246094 11.988281 18.191406 12.027344 18.15625 C 12.066406 18.117188 12.117188 18.09375 12.171875 18.09375 L 17.835938 18.09375 C 17.890625 18.09375 17.941406 18.117188 17.980469 18.15625 C 18.019531 18.191406 18.042969 18.246094 18.042969 18.300781 Z M 18.042969 18.300781 " fill-opacity="1" fill-rule="nonzero"/><path fill="#1f3f77" d="M 15.175781 18.675781 L 14.789062 18.675781 L 14.789062 25.617188 L 15.175781 25.617188 Z M 15.175781 18.675781 " fill-opacity="1" fill-rule="nonzero"/><g fill="#000000" fill-opacity="1"><g transform="translate(10.227822, 9.508066)"><g><path d="M 0.265625 0.015625 C 0.234375 0.015625 0.203125 0.0078125 0.171875 0 C 0.148438 -0.0195312 0.128906 -0.0390625 0.109375 -0.0625 C 0.0976562 -0.09375 0.09375 -0.125 0.09375 -0.15625 C 0.09375 -0.175781 0.0976562 -0.195312 0.109375 -0.21875 C 0.128906 -0.25 0.148438 -0.269531 0.171875 -0.28125 C 0.203125 -0.300781 0.234375 -0.3125 0.265625 -0.3125 C 0.296875 -0.3125 0.320312 -0.300781 0.34375 -0.28125 C 0.375 -0.269531 0.394531 -0.253906 0.40625 -0.234375 C 0.425781 -0.210938 0.4375 -0.1875 0.4375 -0.15625 C 0.4375 -0.101562 0.421875 -0.0625 0.390625 -0.03125 C 0.359375 0 0.316406 0.015625 0.265625 0.015625 Z M 0.265625 0.015625 "/></g></g></g></svg>