<svg xmlns="http://www.w3.org/2000/svg" xmlns:xlink="http://www.w3.org/1999/xlink" width="40" zoomAndPan="magnify" viewBox="0 0 30 30.000001" height="40" preserveAspectRatio="xMidYMid meet" version="1.0"><defs><g/><clipPath id="c2ff83d9b9"><path d="M 1.808594 1.417969 L 28.082031 1.417969 L 28.082031 27.539062 L 1.808594 27.539062 Z M 1.808594 1.417969 " clip-rule="nonzero"/></clipPath><clipPath id="723b6bb142"><path d="M 0.484375 6 L 29.515625 6 L 29.515625 23 L 0.484375 23 Z M 0.484375 6 " clip-rule="nonzero"/></clipPath></defs><path fill="#62bc32" d="M 25.871094 10.542969 C 28.050781 16.527344 24.953125 23.144531 18.949219 25.320312 C 12.949219 27.492188 6.316406 24.402344 4.132812 18.414062 C 1.953125 12.429688 5.054688 5.8125 11.054688 3.636719 C 17.058594 1.464844 23.691406 4.554688 25.871094 10.542969 " fill-opacity="1" fill-rule="nonzero"/><path fill="#f0e9f2" d="M 14.929688 4.261719 C 13.742188 4.261719 12.570312 4.46875 11.441406 4.878906 C 10.140625 5.351562 8.972656 6.0625 7.96875 6.992188 C 7.488281 7.4375 7.042969 7.933594 6.65625 8.46875 C 6.273438 8.996094 5.9375 9.5625 5.660156 10.15625 C 5.382812 10.75 5.160156 11.371094 5 12.003906 C 4.839844 12.640625 4.742188 13.296875 4.707031 13.953125 C 4.636719 15.320312 4.839844 16.667969 5.3125 17.964844 C 5.785156 19.261719 6.496094 20.425781 7.429688 21.425781 C 7.875 21.90625 8.375 22.347656 8.910156 22.734375 C 9.4375 23.121094 10.007812 23.453125 10.601562 23.730469 C 11.195312 24.007812 11.816406 24.226562 12.453125 24.386719 C 13.09375 24.546875 13.75 24.644531 14.410156 24.679688 C 15.777344 24.75 17.128906 24.546875 18.429688 24.078125 C 19.730469 23.605469 20.898438 22.894531 21.902344 21.964844 C 22.382812 21.519531 22.824219 21.023438 23.214844 20.488281 C 23.597656 19.960938 23.933594 19.394531 24.210938 18.800781 C 24.488281 18.207031 24.710938 17.585938 24.871094 16.953125 C 25.03125 16.316406 25.128906 15.660156 25.164062 15.003906 C 25.234375 13.636719 25.03125 12.289062 24.558594 10.992188 C 24.085938 9.695312 23.375 8.53125 22.441406 7.53125 C 21.992188 7.050781 21.496094 6.609375 20.960938 6.222656 C 20.433594 5.835938 19.863281 5.503906 19.269531 5.226562 C 18.675781 4.949219 18.050781 4.730469 17.417969 4.570312 C 16.777344 4.410156 16.117188 4.3125 15.460938 4.277344 C 15.285156 4.269531 15.105469 4.261719 14.929688 4.261719 Z M 14.941406 24.886719 C 14.761719 24.886719 14.582031 24.882812 14.398438 24.871094 C 13.730469 24.835938 13.058594 24.738281 12.40625 24.574219 C 11.757812 24.410156 11.125 24.1875 10.519531 23.90625 C 9.914062 23.621094 9.335938 23.28125 8.796875 22.890625 C 8.25 22.496094 7.742188 22.046875 7.285156 21.558594 C 6.335938 20.535156 5.609375 19.351562 5.128906 18.03125 C 4.648438 16.710938 4.441406 15.335938 4.515625 13.945312 C 4.550781 13.277344 4.648438 12.605469 4.8125 11.957031 C 4.976562 11.3125 5.203125 10.679688 5.484375 10.074219 C 5.765625 9.472656 6.109375 8.894531 6.5 8.355469 C 6.894531 7.8125 7.347656 7.304688 7.839844 6.851562 C 8.859375 5.902344 10.050781 5.179688 11.375 4.699219 C 12.699219 4.21875 14.074219 4.011719 15.472656 4.085938 C 16.140625 4.121094 16.8125 4.21875 17.464844 4.382812 C 18.109375 4.546875 18.746094 4.769531 19.351562 5.050781 C 19.957031 5.335938 20.535156 5.675781 21.074219 6.066406 C 21.617188 6.460938 22.125 6.910156 22.582031 7.398438 C 23.535156 8.421875 24.257812 9.605469 24.738281 10.925781 C 25.21875 12.246094 25.425781 13.621094 25.355469 15.011719 C 25.320312 15.679688 25.21875 16.351562 25.054688 17 C 24.894531 17.644531 24.667969 18.277344 24.386719 18.882812 C 24.101562 19.484375 23.761719 20.0625 23.371094 20.601562 C 22.972656 21.144531 22.523438 21.652344 22.03125 22.105469 C 21.007812 23.054688 19.820312 23.777344 18.496094 24.257812 C 17.34375 24.675781 16.148438 24.886719 14.941406 24.886719 " fill-opacity="1" fill-rule="nonzero"/><g clip-path="url(#c2ff83d9b9)"><path fill="#62bc32" d="M 12.417969 26.144531 C 12.566406 26.144531 12.710938 26.15625 12.859375 26.183594 C 13.203125 26.246094 13.523438 26.371094 13.808594 26.566406 C 14.027344 26.710938 14.214844 26.882812 14.375 27.085938 C 14.550781 26.898438 14.753906 26.742188 14.980469 26.617188 C 15.285156 26.449219 15.617188 26.351562 15.964844 26.320312 C 16.3125 26.289062 16.65625 26.332031 16.984375 26.445312 C 17.230469 26.527344 17.457031 26.648438 17.664062 26.800781 C 17.789062 26.574219 17.945312 26.371094 18.128906 26.191406 C 18.382812 25.953125 18.675781 25.769531 19.003906 25.652344 C 19.332031 25.53125 19.675781 25.484375 20.019531 25.507812 C 20.277344 25.523438 20.53125 25.582031 20.769531 25.675781 C 20.828125 25.425781 20.925781 25.1875 21.0625 24.96875 C 21.242188 24.671875 21.476562 24.421875 21.765625 24.21875 C 22.050781 24.019531 22.367188 23.886719 22.710938 23.820312 C 22.960938 23.769531 23.21875 23.757812 23.476562 23.789062 C 23.46875 23.53125 23.5 23.277344 23.574219 23.027344 C 23.671875 22.695312 23.835938 22.394531 24.058594 22.125 C 24.285156 21.859375 24.554688 21.644531 24.867188 21.492188 C 25.101562 21.378906 25.34375 21.304688 25.601562 21.265625 C 25.527344 21.019531 25.492188 20.765625 25.5 20.507812 C 25.507812 20.160156 25.585938 19.824219 25.734375 19.507812 C 25.878906 19.195312 26.089844 18.917969 26.351562 18.691406 C 26.542969 18.519531 26.761719 18.382812 26.996094 18.28125 C 26.863281 18.0625 26.765625 17.824219 26.703125 17.574219 C 26.621094 17.238281 26.609375 16.894531 26.671875 16.550781 C 26.730469 16.207031 26.859375 15.886719 27.054688 15.601562 C 27.199219 15.386719 27.371094 15.199219 27.574219 15.039062 C 27.386719 14.859375 27.230469 14.65625 27.105469 14.433594 C 26.9375 14.128906 26.839844 13.796875 26.808594 13.449219 C 26.777344 13.101562 26.820312 12.761719 26.933594 12.433594 C 27.015625 12.1875 27.136719 11.960938 27.289062 11.757812 C 27.0625 11.632812 26.859375 11.476562 26.679688 11.292969 C 26.4375 11.042969 26.257812 10.75 26.136719 10.421875 C 26.015625 10.09375 25.96875 9.75 25.992188 9.40625 C 26.007812 9.148438 26.066406 8.898438 26.160156 8.660156 C 25.910156 8.601562 25.671875 8.503906 25.453125 8.367188 C 25.15625 8.1875 24.902344 7.953125 24.703125 7.667969 C 24.503906 7.382812 24.367188 7.0625 24.300781 6.726562 C 24.25 6.472656 24.238281 6.214844 24.269531 5.960938 C 24.011719 5.96875 23.757812 5.933594 23.507812 5.863281 C 23.175781 5.765625 22.871094 5.601562 22.601562 5.378906 C 22.335938 5.152344 22.121094 4.882812 21.96875 4.570312 C 21.855469 4.339844 21.777344 4.09375 21.738281 3.839844 C 21.492188 3.914062 21.238281 3.949219 20.980469 3.941406 C 20.632812 3.933594 20.296875 3.855469 19.980469 3.707031 C 19.664062 3.5625 19.386719 3.355469 19.15625 3.09375 C 18.988281 2.898438 18.851562 2.683594 18.75 2.445312 C 18.527344 2.582031 18.289062 2.679688 18.039062 2.742188 C 17.703125 2.824219 17.355469 2.835938 17.011719 2.773438 C 16.667969 2.714844 16.347656 2.585938 16.058594 2.390625 C 15.84375 2.246094 15.65625 2.074219 15.496094 1.871094 C 15.320312 2.058594 15.113281 2.214844 14.886719 2.339844 C 14.585938 2.507812 14.253906 2.605469 13.90625 2.636719 C 13.558594 2.667969 13.214844 2.625 12.886719 2.511719 C 12.640625 2.429688 12.414062 2.308594 12.207031 2.15625 C 12.082031 2.382812 11.925781 2.585938 11.738281 2.765625 C 11.488281 3.003906 11.195312 3.1875 10.867188 3.304688 C 10.539062 3.425781 10.195312 3.472656 9.851562 3.449219 C 9.589844 3.433594 9.339844 3.375 9.101562 3.28125 C 9.042969 3.53125 8.945312 3.769531 8.808594 3.988281 C 8.628906 4.285156 8.394531 4.535156 8.105469 4.738281 C 7.820312 4.9375 7.5 5.070312 7.160156 5.136719 C 6.90625 5.1875 6.652344 5.199219 6.394531 5.167969 C 6.402344 5.425781 6.367188 5.679688 6.296875 5.929688 C 6.199219 6.261719 6.035156 6.566406 5.8125 6.832031 C 5.585938 7.097656 5.3125 7.3125 5.003906 7.464844 C 4.769531 7.578125 4.523438 7.652344 4.269531 7.691406 C 4.34375 7.9375 4.378906 8.191406 4.371094 8.449219 C 4.363281 8.796875 4.285156 9.132812 4.136719 9.449219 C 3.988281 9.761719 3.78125 10.039062 3.519531 10.265625 C 3.324219 10.4375 3.109375 10.574219 2.871094 10.675781 C 3.007812 10.894531 3.105469 11.132812 3.167969 11.382812 C 3.25 11.71875 3.261719 12.0625 3.199219 12.40625 C 3.140625 12.75 3.011719 13.070312 2.816406 13.355469 C 2.671875 13.570312 2.5 13.757812 2.296875 13.917969 C 2.484375 14.097656 2.640625 14.300781 2.765625 14.523438 C 2.933594 14.828125 3.03125 15.160156 3.0625 15.507812 C 3.09375 15.851562 3.050781 16.195312 2.9375 16.523438 C 2.855469 16.769531 2.734375 16.996094 2.582031 17.199219 C 2.808594 17.324219 3.011719 17.480469 3.191406 17.664062 C 3.433594 17.914062 3.613281 18.207031 3.734375 18.535156 C 3.851562 18.863281 3.902344 19.203125 3.878906 19.550781 C 3.859375 19.808594 3.804688 20.058594 3.710938 20.296875 C 3.960938 20.355469 4.199219 20.453125 4.417969 20.589844 C 4.714844 20.769531 4.96875 21.003906 5.167969 21.289062 C 5.367188 21.574219 5.503906 21.890625 5.570312 22.230469 C 5.621094 22.484375 5.632812 22.742188 5.601562 22.996094 C 5.859375 22.988281 6.113281 23.023438 6.363281 23.09375 C 6.695312 23.191406 7 23.355469 7.269531 23.578125 C 7.535156 23.804688 7.75 24.074219 7.902344 24.386719 C 8.015625 24.617188 8.09375 24.863281 8.128906 25.117188 C 8.375 25.042969 8.632812 25.007812 8.890625 25.015625 C 9.238281 25.023438 9.574219 25.101562 9.890625 25.246094 C 10.207031 25.394531 10.484375 25.601562 10.710938 25.863281 C 10.882812 26.058594 11.019531 26.273438 11.121094 26.511719 C 11.34375 26.375 11.578125 26.277344 11.832031 26.214844 C 12.023438 26.167969 12.222656 26.144531 12.417969 26.144531 Z M 14.363281 27.539062 C 14.359375 27.539062 14.355469 27.539062 14.355469 27.539062 C 14.296875 27.535156 14.246094 27.507812 14.214844 27.460938 C 14.058594 27.21875 13.855469 27.015625 13.617188 26.855469 C 13.367188 26.691406 13.09375 26.578125 12.796875 26.527344 C 12.5 26.472656 12.203125 26.484375 11.914062 26.554688 C 11.632812 26.621094 11.375 26.746094 11.140625 26.917969 C 11.097656 26.949219 11.039062 26.960938 10.984375 26.945312 C 10.929688 26.925781 10.890625 26.886719 10.871094 26.832031 C 10.78125 26.558594 10.636719 26.308594 10.449219 26.09375 C 10.253906 25.867188 10.015625 25.691406 9.742188 25.5625 C 9.46875 25.4375 9.179688 25.371094 8.882812 25.363281 C 8.59375 25.355469 8.3125 25.40625 8.042969 25.515625 C 7.992188 25.535156 7.933594 25.53125 7.882812 25.5 C 7.835938 25.46875 7.808594 25.417969 7.804688 25.363281 C 7.789062 25.074219 7.714844 24.796875 7.589844 24.539062 C 7.457031 24.273438 7.273438 24.039062 7.042969 23.847656 C 6.8125 23.652344 6.550781 23.511719 6.265625 23.429688 C 5.988281 23.347656 5.703125 23.324219 5.414062 23.359375 C 5.359375 23.367188 5.304688 23.34375 5.265625 23.304688 C 5.226562 23.261719 5.210938 23.207031 5.222656 23.152344 C 5.28125 22.867188 5.285156 22.582031 5.226562 22.300781 C 5.171875 22.007812 5.054688 21.734375 4.882812 21.488281 C 4.710938 21.242188 4.492188 21.039062 4.238281 20.886719 C 3.992188 20.738281 3.722656 20.640625 3.433594 20.597656 C 3.378906 20.589844 3.332031 20.554688 3.304688 20.507812 C 3.277344 20.457031 3.277344 20.398438 3.304688 20.347656 C 3.433594 20.089844 3.511719 19.8125 3.527344 19.527344 C 3.550781 19.230469 3.507812 18.9375 3.40625 18.65625 C 3.300781 18.375 3.144531 18.121094 2.9375 17.90625 C 2.738281 17.699219 2.503906 17.535156 2.238281 17.421875 C 2.1875 17.398438 2.148438 17.355469 2.136719 17.300781 C 2.125 17.246094 2.140625 17.1875 2.175781 17.144531 C 2.371094 16.929688 2.515625 16.683594 2.609375 16.410156 C 2.703125 16.128906 2.738281 15.835938 2.714844 15.535156 C 2.6875 15.238281 2.601562 14.953125 2.457031 14.691406 C 2.320312 14.441406 2.132812 14.222656 1.90625 14.042969 C 1.863281 14.007812 1.839844 13.953125 1.839844 13.898438 C 1.84375 13.84375 1.871094 13.792969 1.917969 13.761719 C 2.160156 13.601562 2.367188 13.402344 2.527344 13.164062 C 2.691406 12.914062 2.804688 12.640625 2.855469 12.34375 C 2.910156 12.050781 2.898438 11.753906 2.828125 11.464844 C 2.757812 11.1875 2.636719 10.925781 2.464844 10.695312 C 2.429688 10.648438 2.421875 10.59375 2.4375 10.539062 C 2.453125 10.484375 2.496094 10.441406 2.550781 10.425781 C 2.824219 10.335938 3.074219 10.191406 3.289062 10.003906 C 3.515625 9.808594 3.695312 9.570312 3.820312 9.300781 C 3.949219 9.027344 4.015625 8.738281 4.023438 8.441406 C 4.027344 8.15625 3.976562 7.875 3.871094 7.605469 C 3.851562 7.550781 3.855469 7.492188 3.886719 7.445312 C 3.917969 7.398438 3.96875 7.371094 4.023438 7.367188 C 4.3125 7.351562 4.589844 7.277344 4.847656 7.152344 C 5.117188 7.019531 5.351562 6.835938 5.542969 6.605469 C 5.738281 6.378906 5.878906 6.117188 5.960938 5.832031 C 6.042969 5.554688 6.066406 5.269531 6.03125 4.984375 C 6.023438 4.925781 6.046875 4.871094 6.085938 4.832031 C 6.128906 4.796875 6.183594 4.78125 6.242188 4.792969 C 6.523438 4.851562 6.8125 4.851562 7.09375 4.796875 C 7.386719 4.738281 7.660156 4.621094 7.90625 4.449219 C 8.152344 4.277344 8.355469 4.0625 8.511719 3.808594 C 8.660156 3.5625 8.757812 3.292969 8.800781 3.007812 C 8.808594 2.953125 8.839844 2.902344 8.890625 2.878906 C 8.941406 2.851562 9 2.851562 9.050781 2.878906 C 9.308594 3.007812 9.585938 3.082031 9.875 3.101562 C 10.171875 3.121094 10.464844 3.082031 10.746094 2.976562 C 11.03125 2.875 11.28125 2.71875 11.5 2.511719 C 11.707031 2.316406 11.871094 2.078125 11.984375 1.8125 C 12.007812 1.761719 12.050781 1.726562 12.109375 1.714844 C 12.164062 1.703125 12.21875 1.714844 12.261719 1.753906 C 12.476562 1.945312 12.726562 2.089844 12.996094 2.183594 C 13.28125 2.277344 13.574219 2.316406 13.875 2.289062 C 14.175781 2.261719 14.457031 2.175781 14.71875 2.035156 C 14.972656 1.894531 15.191406 1.710938 15.371094 1.484375 C 15.40625 1.441406 15.460938 1.414062 15.515625 1.417969 C 15.574219 1.421875 15.625 1.449219 15.65625 1.496094 C 15.8125 1.738281 16.015625 1.941406 16.253906 2.101562 C 16.503906 2.265625 16.777344 2.378906 17.074219 2.429688 C 17.371094 2.484375 17.667969 2.472656 17.957031 2.402344 C 18.234375 2.335938 18.496094 2.210938 18.726562 2.039062 C 18.773438 2.007812 18.832031 1.996094 18.886719 2.011719 C 18.9375 2.03125 18.980469 2.070312 19 2.125 C 19.089844 2.398438 19.230469 2.648438 19.421875 2.863281 C 19.617188 3.089844 19.855469 3.265625 20.128906 3.394531 C 20.398438 3.519531 20.6875 3.585938 20.988281 3.59375 C 21.273438 3.601562 21.558594 3.550781 21.828125 3.441406 C 21.878906 3.421875 21.9375 3.425781 21.984375 3.457031 C 22.03125 3.488281 22.0625 3.539062 22.066406 3.59375 C 22.082031 3.882812 22.15625 4.160156 22.28125 4.417969 C 22.414062 4.683594 22.597656 4.917969 22.828125 5.109375 C 23.058594 5.304688 23.320312 5.445312 23.605469 5.527344 C 23.882812 5.609375 24.167969 5.632812 24.457031 5.597656 C 24.511719 5.589844 24.566406 5.613281 24.605469 5.652344 C 24.644531 5.695312 24.660156 5.75 24.648438 5.804688 C 24.589844 6.089844 24.585938 6.375 24.640625 6.65625 C 24.699219 6.949219 24.816406 7.222656 24.988281 7.46875 C 25.160156 7.714844 25.378906 7.917969 25.632812 8.070312 C 25.878906 8.21875 26.148438 8.316406 26.4375 8.359375 C 26.492188 8.367188 26.539062 8.402344 26.566406 8.449219 C 26.589844 8.5 26.59375 8.558594 26.566406 8.609375 C 26.4375 8.867188 26.359375 9.144531 26.339844 9.429688 C 26.320312 9.726562 26.363281 10.019531 26.464844 10.300781 C 26.566406 10.582031 26.726562 10.835938 26.929688 11.050781 C 27.128906 11.257812 27.367188 11.421875 27.632812 11.535156 C 27.683594 11.558594 27.722656 11.601562 27.734375 11.65625 C 27.746094 11.710938 27.730469 11.769531 27.695312 11.8125 C 27.5 12.027344 27.355469 12.273438 27.261719 12.546875 C 27.167969 12.828125 27.128906 13.121094 27.15625 13.421875 C 27.183594 13.71875 27.269531 14.003906 27.410156 14.265625 C 27.550781 14.515625 27.734375 14.734375 27.964844 14.914062 C 28.007812 14.949219 28.03125 15.003906 28.03125 15.058594 C 28.027344 15.113281 27.996094 15.164062 27.949219 15.195312 C 27.707031 15.355469 27.503906 15.554688 27.34375 15.792969 C 27.179688 16.042969 27.066406 16.316406 27.015625 16.613281 C 26.960938 16.90625 26.972656 17.203125 27.042969 17.492188 C 27.109375 17.769531 27.234375 18.03125 27.40625 18.261719 C 27.441406 18.308594 27.449219 18.363281 27.433594 18.417969 C 27.414062 18.472656 27.375 18.515625 27.320312 18.53125 C 27.046875 18.621094 26.796875 18.765625 26.578125 18.953125 C 26.355469 19.148438 26.175781 19.386719 26.050781 19.65625 C 25.921875 19.929688 25.855469 20.21875 25.847656 20.515625 C 25.84375 20.800781 25.894531 21.082031 26 21.351562 C 26.019531 21.40625 26.015625 21.464844 25.984375 21.511719 C 25.953125 21.558594 25.902344 21.585938 25.847656 21.589844 C 25.558594 21.605469 25.28125 21.679688 25.023438 21.804688 C 24.753906 21.9375 24.519531 22.121094 24.328125 22.351562 C 24.132812 22.578125 23.992188 22.839844 23.910156 23.125 C 23.828125 23.402344 23.804688 23.6875 23.839844 23.972656 C 23.84375 24.03125 23.824219 24.085938 23.785156 24.125 C 23.742188 24.160156 23.683594 24.175781 23.628906 24.164062 C 23.347656 24.105469 23.058594 24.105469 22.777344 24.160156 C 22.484375 24.21875 22.210938 24.335938 21.964844 24.507812 C 21.71875 24.679688 21.515625 24.894531 21.359375 25.148438 C 21.210938 25.394531 21.113281 25.664062 21.070312 25.949219 C 21.0625 26.003906 21.027344 26.054688 20.980469 26.078125 C 20.929688 26.105469 20.871094 26.105469 20.820312 26.078125 C 20.5625 25.949219 20.285156 25.875 19.996094 25.855469 C 19.699219 25.835938 19.40625 25.875 19.121094 25.980469 C 18.839844 26.082031 18.585938 26.238281 18.371094 26.445312 C 18.164062 26.640625 18 26.878906 17.886719 27.140625 C 17.863281 27.195312 17.816406 27.230469 17.761719 27.242188 C 17.707031 27.253906 17.652344 27.242188 17.609375 27.203125 C 17.390625 27.011719 17.144531 26.867188 16.871094 26.773438 C 16.589844 26.675781 16.296875 26.640625 15.996094 26.667969 C 15.695312 26.695312 15.410156 26.78125 15.148438 26.921875 C 14.898438 27.0625 14.679688 27.246094 14.5 27.472656 C 14.464844 27.515625 14.414062 27.539062 14.363281 27.539062 " fill-opacity="1" fill-rule="nonzero"/></g><path fill="#3b8033" d="M 21.335938 12.160156 C 22.621094 15.6875 20.796875 19.582031 17.261719 20.863281 C 13.722656 22.144531 9.816406 20.324219 8.53125 16.796875 C 7.25 13.269531 9.074219 9.375 12.609375 8.09375 C 16.144531 6.8125 20.054688 8.632812 21.335938 12.160156 " fill-opacity="1" fill-rule="nonzero"/><path fill="#f0e9f2" d="M 14.933594 8.234375 C 14.207031 8.234375 13.492188 8.363281 12.800781 8.613281 C 12.003906 8.898438 11.292969 9.335938 10.675781 9.902344 C 10.085938 10.453125 9.609375 11.101562 9.265625 11.835938 C 8.921875 12.570312 8.726562 13.351562 8.683594 14.15625 C 8.640625 14.992188 8.765625 15.816406 9.054688 16.609375 C 9.34375 17.402344 9.777344 18.113281 10.347656 18.726562 C 10.898438 19.316406 11.550781 19.789062 12.285156 20.132812 C 13.023438 20.476562 13.804688 20.671875 14.613281 20.710938 C 15.449219 20.757812 16.277344 20.632812 17.070312 20.34375 C 17.863281 20.058594 18.578125 19.621094 19.191406 19.054688 C 19.785156 18.503906 20.261719 17.855469 20.605469 17.121094 C 20.949219 16.386719 21.144531 15.605469 21.1875 14.800781 C 21.230469 13.964844 21.105469 13.140625 20.816406 12.347656 C 20.527344 11.554688 20.09375 10.84375 19.523438 10.230469 C 18.972656 9.640625 18.320312 9.167969 17.582031 8.824219 C 16.847656 8.480469 16.0625 8.285156 15.257812 8.242188 C 15.148438 8.238281 15.039062 8.234375 14.933594 8.234375 Z M 14.9375 20.914062 C 14.828125 20.914062 14.714844 20.910156 14.605469 20.90625 C 13.769531 20.863281 12.964844 20.660156 12.207031 20.308594 C 11.445312 19.953125 10.773438 19.464844 10.207031 18.855469 C 9.617188 18.222656 9.167969 17.492188 8.871094 16.675781 C 8.574219 15.859375 8.449219 15.007812 8.492188 14.148438 C 8.535156 13.316406 8.738281 12.511719 9.089844 11.753906 C 9.445312 11 9.9375 10.328125 10.546875 9.761719 C 11.179688 9.175781 11.914062 8.726562 12.734375 8.433594 C 13.550781 8.136719 14.402344 8.007812 15.265625 8.050781 C 16.097656 8.09375 16.90625 8.296875 17.664062 8.648438 C 18.425781 9.003906 19.097656 9.492188 19.664062 10.101562 C 20.25 10.734375 20.699219 11.464844 20.996094 12.28125 C 21.292969 13.097656 21.421875 13.949219 21.378906 14.808594 C 21.335938 15.640625 21.132812 16.445312 20.777344 17.203125 C 20.425781 17.957031 19.933594 18.628906 19.324219 19.195312 C 18.691406 19.78125 17.957031 20.230469 17.136719 20.523438 C 16.425781 20.78125 15.6875 20.914062 14.9375 20.914062 " fill-opacity="1" fill-rule="nonzero"/><g clip-path="url(#723b6bb142)"><path fill="#62bc32" d="M 28.796875 12.785156 L 3.394531 21.984375 C 2.980469 22.136719 2.523438 21.921875 2.375 21.511719 L 0.734375 17 C 0.582031 16.589844 0.796875 16.132812 1.207031 15.984375 L 26.613281 6.78125 C 27.023438 6.632812 27.480469 6.847656 27.628906 7.257812 L 29.273438 11.769531 C 29.421875 12.179688 29.210938 12.636719 28.796875 12.785156 " fill-opacity="1" fill-rule="nonzero"/><path fill="#f0e9f2" d="M 26.882812 6.820312 C 26.804688 6.820312 26.722656 6.835938 26.640625 6.863281 L 1.238281 16.066406 C 0.871094 16.199219 0.679688 16.605469 0.8125 16.972656 L 2.457031 21.484375 C 2.589844 21.847656 2.996094 22.039062 3.363281 21.90625 L 28.769531 12.703125 L 28.796875 12.785156 L 28.769531 12.703125 C 29.136719 12.570312 29.324219 12.164062 29.191406 11.796875 L 27.550781 7.285156 C 27.445312 7 27.171875 6.820312 26.882812 6.820312 Z M 3.121094 22.121094 C 2.761719 22.121094 2.425781 21.898438 2.292969 21.542969 L 0.652344 17.027344 C 0.488281 16.574219 0.722656 16.070312 1.179688 15.90625 L 26.582031 6.703125 C 27.039062 6.539062 27.546875 6.773438 27.710938 7.226562 L 29.355469 11.738281 C 29.519531 12.195312 29.28125 12.699219 28.828125 12.863281 L 3.421875 22.066406 C 3.324219 22.101562 3.222656 22.121094 3.121094 22.121094 " fill-opacity="1" fill-rule="nonzero"/></g><path fill="#f0e9f2" d="M 13.488281 9.585938 C 13.527344 9.628906 13.585938 9.644531 13.640625 9.632812 L 14.132812 9.507812 C 14.136719 9.507812 14.144531 9.511719 14.148438 9.515625 C 14.152344 9.519531 14.152344 9.523438 14.148438 9.53125 L 13.910156 9.976562 C 13.882812 10.027344 13.886719 10.085938 13.917969 10.132812 L 14.183594 10.5625 C 14.1875 10.566406 14.1875 10.574219 14.183594 10.578125 C 14.179688 10.582031 14.175781 10.585938 14.167969 10.585938 L 13.671875 10.496094 C 13.617188 10.484375 13.558594 10.507812 13.523438 10.550781 L 13.199219 10.9375 C 13.195312 10.941406 13.1875 10.941406 13.183594 10.941406 C 13.175781 10.941406 13.171875 10.933594 13.171875 10.929688 L 13.101562 10.429688 C 13.09375 10.375 13.054688 10.324219 13.003906 10.304688 L 12.535156 10.113281 C 12.53125 10.113281 12.527344 10.109375 12.527344 10.101562 C 12.527344 10.097656 12.527344 10.089844 12.535156 10.089844 L 12.988281 9.867188 C 13.039062 9.84375 13.074219 9.792969 13.078125 9.734375 L 13.113281 9.234375 C 13.113281 9.226562 13.117188 9.222656 13.121094 9.21875 C 13.128906 9.21875 13.132812 9.21875 13.136719 9.222656 L 13.488281 9.585938 " fill-opacity="1" fill-rule="evenodd"/><path fill="#f0e9f2" d="M 15.652344 9.238281 C 15.683594 9.269531 15.726562 9.28125 15.769531 9.269531 L 16.140625 9.179688 C 16.144531 9.179688 16.148438 9.179688 16.152344 9.183594 C 16.15625 9.1875 16.15625 9.191406 16.152344 9.195312 L 15.972656 9.53125 C 15.953125 9.570312 15.953125 9.613281 15.976562 9.652344 L 16.179688 9.976562 C 16.183594 9.980469 16.183594 9.984375 16.179688 9.988281 C 16.175781 9.992188 16.171875 9.992188 16.167969 9.992188 L 15.792969 9.925781 C 15.75 9.917969 15.707031 9.933594 15.679688 9.964844 L 15.433594 10.257812 C 15.429688 10.261719 15.425781 10.261719 15.421875 10.261719 C 15.417969 10.261719 15.414062 10.257812 15.414062 10.253906 L 15.363281 9.875 C 15.355469 9.832031 15.328125 9.796875 15.289062 9.78125 L 14.933594 9.636719 C 14.929688 9.636719 14.925781 9.632812 14.925781 9.625 C 14.925781 9.621094 14.929688 9.617188 14.933594 9.617188 L 15.277344 9.449219 C 15.316406 9.429688 15.339844 9.394531 15.34375 9.351562 L 15.371094 8.96875 C 15.371094 8.964844 15.375 8.960938 15.378906 8.960938 C 15.382812 8.957031 15.386719 8.960938 15.390625 8.964844 L 15.652344 9.238281 " fill-opacity="1" fill-rule="evenodd"/><path fill="#f0e9f2" d="M 11.378906 10.785156 C 11.410156 10.816406 11.453125 10.828125 11.496094 10.820312 L 11.867188 10.726562 C 11.871094 10.726562 11.875 10.726562 11.878906 10.730469 C 11.882812 10.734375 11.882812 10.738281 11.878906 10.742188 L 11.699219 11.078125 C 11.679688 11.117188 11.679688 11.164062 11.703125 11.199219 L 11.90625 11.523438 C 11.910156 11.527344 11.910156 11.53125 11.90625 11.535156 C 11.902344 11.539062 11.898438 11.539062 11.894531 11.539062 L 11.519531 11.472656 C 11.476562 11.464844 11.433594 11.480469 11.40625 11.515625 L 11.160156 11.804688 C 11.15625 11.808594 11.152344 11.8125 11.148438 11.808594 C 11.144531 11.808594 11.140625 11.804688 11.140625 11.800781 L 11.089844 11.421875 C 11.082031 11.378906 11.054688 11.34375 11.015625 11.328125 L 10.660156 11.183594 C 10.65625 11.183594 10.652344 11.179688 10.652344 11.175781 C 10.652344 11.171875 10.65625 11.167969 10.660156 11.164062 L 11.003906 11 C 11.039062 10.980469 11.066406 10.941406 11.070312 10.898438 L 11.097656 10.519531 C 11.097656 10.511719 11.097656 10.511719 11.101562 10.507812 C 11.109375 10.507812 11.113281 10.507812 11.113281 10.511719 L 11.378906 10.785156 " fill-opacity="1" fill-rule="evenodd"/><path fill="#f0e9f2" d="M 16.96875 19.148438 C 16.972656 19.09375 17.007812 19.042969 17.058594 19.015625 L 17.511719 18.796875 C 17.519531 18.792969 17.523438 18.789062 17.523438 18.78125 C 17.523438 18.777344 17.519531 18.773438 17.511719 18.769531 L 17.042969 18.582031 C 16.992188 18.558594 16.953125 18.511719 16.945312 18.453125 L 16.875 17.953125 C 16.875 17.949219 16.871094 17.945312 16.867188 17.941406 C 16.859375 17.941406 16.855469 17.941406 16.851562 17.949219 L 16.527344 18.332031 C 16.488281 18.378906 16.433594 18.398438 16.375 18.386719 L 15.878906 18.300781 C 15.871094 18.296875 15.867188 18.300781 15.863281 18.304688 C 15.859375 18.3125 15.859375 18.316406 15.863281 18.320312 L 16.132812 18.75 C 16.160156 18.796875 16.164062 18.859375 16.136719 18.910156 L 15.898438 19.355469 C 15.898438 19.359375 15.898438 19.367188 15.902344 19.371094 C 15.902344 19.375 15.910156 19.375 15.914062 19.375 L 16.40625 19.253906 C 16.460938 19.238281 16.519531 19.257812 16.558594 19.296875 L 16.910156 19.660156 C 16.914062 19.664062 16.921875 19.667969 16.925781 19.664062 C 16.929688 19.664062 16.933594 19.65625 16.933594 19.652344 L 16.96875 19.148438 " fill-opacity="1" fill-rule="evenodd"/><path fill="#f0e9f2" d="M 18.855469 18.03125 C 18.859375 17.988281 18.882812 17.949219 18.921875 17.929688 L 19.265625 17.765625 C 19.269531 17.761719 19.273438 17.757812 19.273438 17.753906 C 19.273438 17.75 19.269531 17.746094 19.265625 17.746094 L 18.910156 17.601562 C 18.871094 17.585938 18.84375 17.546875 18.835938 17.507812 L 18.785156 17.128906 C 18.785156 17.125 18.78125 17.121094 18.777344 17.121094 C 18.773438 17.117188 18.769531 17.121094 18.765625 17.121094 L 18.519531 17.414062 C 18.492188 17.449219 18.449219 17.464844 18.40625 17.457031 L 18.03125 17.390625 C 18.027344 17.386719 18.023438 17.390625 18.019531 17.394531 C 18.015625 17.398438 18.015625 17.402344 18.019531 17.40625 L 18.222656 17.730469 C 18.246094 17.765625 18.246094 17.8125 18.226562 17.847656 L 18.046875 18.1875 C 18.042969 18.191406 18.042969 18.195312 18.046875 18.199219 C 18.050781 18.203125 18.054688 18.203125 18.058594 18.203125 L 18.429688 18.109375 C 18.472656 18.097656 18.515625 18.113281 18.546875 18.144531 L 18.808594 18.417969 C 18.8125 18.421875 18.816406 18.421875 18.820312 18.421875 C 18.828125 18.417969 18.828125 18.414062 18.828125 18.410156 L 18.855469 18.03125 " fill-opacity="1" fill-rule="evenodd"/><path fill="#f0e9f2" d="M 14.582031 19.578125 C 14.585938 19.535156 14.609375 19.496094 14.648438 19.480469 L 14.992188 19.3125 C 14.996094 19.308594 15 19.304688 15 19.300781 C 15 19.296875 14.996094 19.292969 14.992188 19.292969 L 14.636719 19.148438 C 14.597656 19.132812 14.570312 19.097656 14.5625 19.054688 L 14.511719 18.675781 C 14.511719 18.671875 14.507812 18.667969 14.503906 18.667969 C 14.5 18.667969 14.496094 18.667969 14.492188 18.671875 L 14.246094 18.960938 C 14.21875 18.996094 14.175781 19.011719 14.132812 19.003906 L 13.757812 18.9375 C 13.753906 18.9375 13.746094 18.9375 13.746094 18.941406 C 13.742188 18.945312 13.742188 18.949219 13.746094 18.953125 L 13.949219 19.277344 C 13.972656 19.3125 13.972656 19.359375 13.953125 19.398438 L 13.773438 19.734375 C 13.769531 19.738281 13.769531 19.742188 13.773438 19.746094 C 13.777344 19.75 13.78125 19.75 13.785156 19.75 L 14.15625 19.65625 C 14.195312 19.648438 14.242188 19.660156 14.269531 19.691406 L 14.535156 19.964844 C 14.539062 19.96875 14.542969 19.96875 14.546875 19.96875 C 14.550781 19.96875 14.554688 19.964844 14.554688 19.960938 L 14.582031 19.578125 " fill-opacity="1" fill-rule="evenodd"/><path fill="#f0e9f2" d="M 1.917969 16.75 L 2.890625 16.398438 L 5.089844 19.15625 L 5 15.632812 L 5.972656 15.28125 L 5.941406 19.988281 L 4.96875 20.339844 L 1.917969 16.75 " fill-opacity="1" fill-rule="nonzero"/><path fill="#f0e9f2" d="M 7.921875 19.269531 L 6.410156 15.121094 L 8.777344 14.261719 L 9.082031 15.097656 L 7.585938 15.640625 L 7.878906 16.445312 L 9.253906 15.949219 L 9.558594 16.785156 L 8.183594 17.28125 L 8.484375 18.117188 L 9.984375 17.574219 L 10.289062 18.410156 L 7.921875 19.269531 " fill-opacity="1" fill-rule="nonzero"/><path fill="#f0e9f2" d="M 11.320312 14.289062 L 10.753906 14.496094 L 11.09375 15.429688 L 11.660156 15.222656 C 11.9375 15.121094 12.085938 14.882812 11.976562 14.582031 C 11.863281 14.277344 11.597656 14.1875 11.320312 14.289062 Z M 9.578125 13.972656 L 11.015625 13.453125 C 11.832031 13.15625 12.554688 13.394531 12.832031 14.160156 C 13.046875 14.753906 12.832031 15.21875 12.460938 15.484375 C 13.082031 15.5625 13.660156 16.183594 14.082031 17.039062 L 13.183594 17.363281 C 12.707031 16.515625 12.117188 16.003906 11.609375 16.1875 L 11.398438 16.261719 L 11.957031 17.808594 L 11.089844 18.121094 L 9.578125 13.972656 " fill-opacity="1" fill-rule="nonzero"/><path fill="#f0e9f2" d="M 13.207031 12.660156 L 14.074219 12.34375 L 15.585938 16.492188 L 14.71875 16.808594 L 13.207031 12.660156 " fill-opacity="1" fill-rule="nonzero"/><path fill="#f0e9f2" d="M 16.828125 14.351562 L 17.371094 15.847656 L 16.503906 16.160156 L 14.992188 12.011719 L 17.359375 11.15625 L 17.664062 11.992188 L 16.164062 12.535156 L 16.523438 13.515625 L 17.898438 13.015625 L 18.203125 13.851562 L 16.828125 14.351562 " fill-opacity="1" fill-rule="nonzero"/><path fill="#f0e9f2" d="M 18.074219 10.894531 L 18.945312 10.582031 L 20.453125 14.730469 L 19.585938 15.042969 L 18.074219 10.894531 " fill-opacity="1" fill-rule="nonzero"/><path fill="#f0e9f2" d="M 21.371094 14.398438 L 19.859375 10.25 L 22.226562 9.390625 L 22.53125 10.226562 L 21.035156 10.769531 L 21.328125 11.574219 L 22.703125 11.078125 L 23.007812 11.914062 L 21.632812 12.410156 L 21.9375 13.246094 L 23.433594 12.703125 L 23.738281 13.539062 L 21.371094 14.398438 " fill-opacity="1" fill-rule="nonzero"/><path fill="#f0e9f2" d="M 24.203125 9.621094 L 25.105469 12.097656 L 25.769531 11.859375 C 26.523438 11.585938 26.738281 10.90625 26.480469 10.199219 C 26.226562 9.496094 25.621094 9.109375 24.867188 9.382812 Z M 23.027344 9.101562 L 24.570312 8.542969 C 25.835938 8.085938 26.9375 8.660156 27.378906 9.871094 C 27.824219 11.085938 27.347656 12.234375 26.082031 12.691406 L 24.539062 13.25 L 23.027344 9.101562 " fill-opacity="1" fill-rule="nonzero"/><path fill="#f0e9f2" d="M 11.894531 23.570312 L 11.289062 23.375 C 11.277344 23.367188 11.269531 23.359375 11.269531 23.347656 L 11.277344 21.351562 C 11.277344 21.332031 11.289062 21.328125 11.308594 21.332031 L 11.808594 21.496094 C 11.820312 21.5 11.828125 21.511719 11.828125 21.523438 L 11.777344 23.007812 L 12.59375 21.769531 C 12.597656 21.757812 12.613281 21.753906 12.625 21.757812 L 13.0625 21.898438 C 13.078125 21.902344 13.085938 21.914062 13.074219 21.933594 L 11.929688 23.558594 C 11.921875 23.570312 11.910156 23.574219 11.894531 23.570312 " fill-opacity="1" fill-rule="nonzero"/><path fill="#f0e9f2" d="M 14.53125 23.625 L 14.503906 23.949219 C 14.5 23.960938 14.488281 23.972656 14.476562 23.972656 L 13.074219 23.847656 C 13.0625 23.847656 13.050781 23.835938 13.054688 23.820312 L 13.148438 22.894531 L 13.21875 21.929688 C 13.222656 21.917969 13.234375 21.90625 13.246094 21.910156 L 14.625 22.03125 C 14.640625 22.03125 14.648438 22.042969 14.648438 22.058594 L 14.621094 22.378906 C 14.617188 22.390625 14.605469 22.402344 14.59375 22.402344 L 13.710938 22.324219 L 13.675781 22.6875 L 14.472656 22.757812 C 14.488281 22.757812 14.5 22.769531 14.496094 22.785156 L 14.46875 23.105469 C 14.46875 23.117188 14.457031 23.128906 14.441406 23.128906 L 13.640625 23.058594 L 13.605469 23.515625 L 14.507812 23.597656 C 14.523438 23.597656 14.53125 23.609375 14.53125 23.625 " fill-opacity="1" fill-rule="nonzero"/><path fill="#f0e9f2" d="M 15.433594 22.332031 L 15.5 22.859375 L 15.875 22.808594 C 16.011719 22.789062 16.144531 22.699219 16.121094 22.519531 C 16.09375 22.328125 15.976562 22.257812 15.789062 22.28125 Z M 16.835938 23.707031 C 16.851562 23.722656 16.84375 23.738281 16.824219 23.742188 L 16.285156 23.8125 C 16.269531 23.816406 16.257812 23.8125 16.25 23.800781 L 15.910156 23.371094 L 15.75 23.195312 L 15.546875 23.222656 L 15.644531 23.875 C 15.644531 23.886719 15.636719 23.898438 15.621094 23.902344 L 15.148438 23.964844 C 15.136719 23.96875 15.125 23.957031 15.121094 23.945312 L 15.003906 23.015625 L 14.871094 22.0625 C 14.867188 22.050781 14.875 22.039062 14.890625 22.035156 L 15.726562 21.921875 C 16.242188 21.855469 16.558594 22.023438 16.617188 22.441406 C 16.652344 22.714844 16.535156 22.933594 16.277344 23.0625 L 16.835938 23.707031 " fill-opacity="1" fill-rule="nonzero"/><path fill="#f0e9f2" d="M 17.847656 23.386719 C 17.855469 23.398438 17.847656 23.414062 17.832031 23.417969 L 17.382812 23.558594 C 17.371094 23.5625 17.355469 23.554688 17.351562 23.542969 L 17.078125 22.644531 L 16.777344 21.734375 C 16.773438 21.722656 16.78125 21.707031 16.796875 21.703125 L 17.246094 21.5625 C 17.257812 21.558594 17.273438 21.5625 17.277344 21.578125 L 17.554688 22.492188 L 17.847656 23.386719 " fill-opacity="1" fill-rule="nonzero"/><path fill="#f0e9f2" d="M 18.878906 22.960938 C 18.886719 22.972656 18.882812 22.988281 18.867188 22.996094 L 18.441406 23.207031 C 18.429688 23.210938 18.414062 23.207031 18.410156 23.195312 L 17.996094 22.335938 L 17.5625 21.496094 C 17.554688 21.484375 17.558594 21.46875 17.570312 21.464844 L 18.769531 20.867188 C 18.78125 20.863281 18.796875 20.867188 18.804688 20.878906 L 18.949219 21.167969 C 18.953125 21.179688 18.949219 21.195312 18.9375 21.203125 L 18.1875 21.574219 L 18.382812 21.980469 L 19.105469 21.621094 C 19.117188 21.617188 19.132812 21.621094 19.140625 21.632812 L 19.285156 21.921875 C 19.289062 21.933594 19.285156 21.949219 19.273438 21.957031 L 18.546875 22.316406 L 18.878906 22.960938 " fill-opacity="1" fill-rule="nonzero"/><path fill="#f0e9f2" d="M 20.523438 21.96875 C 20.53125 21.980469 20.527344 21.996094 20.519531 22.003906 L 20.132812 22.277344 C 20.121094 22.285156 20.105469 22.28125 20.097656 22.269531 L 19.5625 21.496094 L 19 20.722656 C 18.988281 20.710938 18.992188 20.695312 19.003906 20.6875 L 19.386719 20.414062 C 19.398438 20.40625 19.414062 20.410156 19.421875 20.421875 L 19.96875 21.207031 L 20.523438 21.96875 " fill-opacity="1" fill-rule="nonzero"/><path fill="#f0e9f2" d="M 21.816406 20.367188 L 22.042969 20.601562 C 22.050781 20.609375 22.050781 20.625 22.042969 20.636719 L 21.035156 21.617188 C 21.027344 21.625 21.011719 21.625 21 21.617188 L 20.359375 20.941406 L 19.671875 20.257812 C 19.664062 20.25 19.664062 20.234375 19.671875 20.222656 L 20.660156 19.261719 C 20.671875 19.25 20.6875 19.25 20.699219 19.261719 L 20.921875 19.492188 C 20.933594 19.5 20.933594 19.515625 20.921875 19.527344 L 20.289062 20.144531 L 20.542969 20.40625 L 21.117188 19.847656 C 21.125 19.835938 21.140625 19.835938 21.152344 19.847656 L 21.378906 20.078125 C 21.386719 20.089844 21.386719 20.105469 21.378906 20.113281 L 20.804688 20.671875 L 21.128906 21 L 21.777344 20.367188 C 21.789062 20.359375 21.804688 20.359375 21.816406 20.367188 " fill-opacity="1" fill-rule="nonzero"/><path fill="#f0e9f2" d="M 21.929688 19.183594 L 22.4375 19.496094 L 22.570312 19.285156 C 22.734375 19.03125 22.707031 18.769531 22.351562 18.546875 C 21.988281 18.316406 21.714844 18.398438 21.550781 18.652344 L 21.425781 18.851562 Z M 22.484375 20.117188 C 22.480469 20.128906 22.464844 20.132812 22.453125 20.125 L 21.667969 19.613281 L 20.847656 19.109375 C 20.835938 19.101562 20.832031 19.085938 20.839844 19.074219 L 21.226562 18.464844 C 21.535156 17.988281 22.039062 17.710938 22.644531 18.097656 C 23.238281 18.472656 23.183594 19.027344 22.878906 19.507812 L 22.484375 20.117188 " fill-opacity="1" fill-rule="nonzero"/><path fill="#f0e9f2" d="M 8.574219 10.539062 L 8.226562 11.0625 C 8.21875 11.074219 8.207031 11.082031 8.195312 11.078125 L 6.277344 10.535156 C 6.257812 10.53125 6.257812 10.515625 6.269531 10.503906 L 6.558594 10.066406 C 6.566406 10.054688 6.578125 10.050781 6.589844 10.054688 L 8.003906 10.503906 L 7.03125 9.390625 C 7.023438 9.378906 7.023438 9.367188 7.03125 9.355469 L 7.28125 8.972656 C 7.292969 8.960938 7.304688 8.957031 7.316406 8.972656 L 8.574219 10.503906 C 8.582031 10.515625 8.582031 10.527344 8.574219 10.539062 " fill-opacity="1" fill-rule="nonzero"/><path fill="#f0e9f2" d="M 9.859375 8.636719 L 10.085938 8.867188 C 10.09375 8.878906 10.09375 8.894531 10.085938 8.902344 L 9.078125 9.875 C 9.070312 9.882812 9.054688 9.882812 9.042969 9.871094 L 8.40625 9.195312 L 7.726562 8.515625 C 7.71875 8.503906 7.71875 8.488281 7.730469 8.480469 L 8.71875 7.527344 C 8.730469 7.515625 8.746094 7.515625 8.753906 7.527344 L 8.976562 7.757812 C 8.988281 7.765625 8.988281 7.78125 8.976562 7.792969 L 8.34375 8.402344 L 8.59375 8.667969 L 9.167969 8.113281 C 9.179688 8.101562 9.195312 8.105469 9.203125 8.113281 L 9.425781 8.34375 C 9.4375 8.355469 9.4375 8.371094 9.425781 8.378906 L 8.851562 8.933594 L 9.175781 9.261719 L 9.824219 8.636719 C 9.835938 8.625 9.851562 8.625 9.859375 8.636719 " fill-opacity="1" fill-rule="nonzero"/><path fill="#f0e9f2" d="M 9.910156 7.109375 L 10.183594 7.5625 L 10.503906 7.363281 C 10.621094 7.292969 10.707031 7.160156 10.609375 7.003906 C 10.507812 6.839844 10.375 6.824219 10.214844 6.921875 Z M 11.746094 7.792969 C 11.765625 7.800781 11.765625 7.816406 11.75 7.828125 L 11.285156 8.113281 C 11.273438 8.121094 11.261719 8.121094 11.25 8.113281 L 10.765625 7.863281 L 10.550781 7.765625 L 10.375 7.875 L 10.730469 8.425781 C 10.738281 8.4375 10.734375 8.453125 10.722656 8.460938 L 10.320312 8.710938 C 10.308594 8.71875 10.292969 8.714844 10.285156 8.703125 L 9.800781 7.90625 L 9.289062 7.097656 C 9.28125 7.085938 9.285156 7.070312 9.296875 7.0625 L 10.011719 6.621094 C 10.449219 6.351562 10.808594 6.375 11.027344 6.730469 C 11.171875 6.964844 11.152344 7.210938 10.976562 7.433594 L 11.746094 7.792969 " fill-opacity="1" fill-rule="nonzero"/><path fill="#f0e9f2" d="M 12.484375 7.53125 C 12.488281 7.546875 12.484375 7.558594 12.46875 7.566406 L 12.035156 7.742188 C 12.023438 7.746094 12.007812 7.742188 12.003906 7.726562 L 11.660156 6.855469 L 11.289062 5.980469 C 11.285156 5.964844 11.289062 5.953125 11.304688 5.945312 L 11.738281 5.769531 C 11.75 5.765625 11.765625 5.773438 11.769531 5.785156 L 12.121094 6.671875 L 12.484375 7.53125 " fill-opacity="1" fill-rule="nonzero"/><path fill="#f0e9f2" d="M 13.304688 7.277344 C 13.308594 7.292969 13.300781 7.304688 13.285156 7.308594 L 12.824219 7.417969 C 12.8125 7.421875 12.796875 7.414062 12.796875 7.402344 L 12.585938 6.476562 L 12.351562 5.566406 C 12.347656 5.550781 12.355469 5.539062 12.371094 5.535156 L 13.664062 5.222656 C 13.679688 5.222656 13.691406 5.230469 13.695312 5.242188 L 13.769531 5.554688 C 13.773438 5.566406 13.765625 5.582031 13.753906 5.585938 L 12.941406 5.777344 L 13.039062 6.21875 L 13.824219 6.027344 C 13.835938 6.027344 13.847656 6.035156 13.851562 6.046875 L 13.929688 6.359375 C 13.929688 6.375 13.921875 6.386719 13.910156 6.390625 L 13.128906 6.578125 L 13.304688 7.277344 " fill-opacity="1" fill-rule="nonzero"/><path fill="#f0e9f2" d="M 14.949219 7.019531 C 14.949219 7.03125 14.9375 7.046875 14.925781 7.046875 L 14.457031 7.085938 C 14.445312 7.089844 14.433594 7.078125 14.429688 7.066406 L 14.359375 6.132812 L 14.265625 5.183594 C 14.265625 5.171875 14.273438 5.15625 14.289062 5.15625 L 14.753906 5.117188 C 14.769531 5.113281 14.78125 5.125 14.78125 5.136719 L 14.855469 6.089844 L 14.949219 7.019531 " fill-opacity="1" fill-rule="nonzero"/><path fill="#f0e9f2" d="M 16.75 6.753906 L 16.730469 7.074219 C 16.726562 7.089844 16.714844 7.101562 16.703125 7.097656 L 15.304688 7.007812 C 15.292969 7.007812 15.28125 6.996094 15.28125 6.980469 L 15.355469 6.058594 L 15.40625 5.097656 C 15.40625 5.085938 15.417969 5.074219 15.433594 5.074219 L 16.804688 5.164062 C 16.820312 5.164062 16.832031 5.175781 16.828125 5.191406 L 16.808594 5.511719 C 16.808594 5.523438 16.796875 5.535156 16.78125 5.535156 L 15.902344 5.476562 L 15.875 5.839844 L 16.671875 5.890625 C 16.6875 5.890625 16.695312 5.902344 16.695312 5.917969 L 16.675781 6.238281 C 16.675781 6.25 16.664062 6.261719 16.648438 6.261719 L 15.851562 6.207031 L 15.828125 6.667969 L 16.726562 6.726562 C 16.742188 6.726562 16.75 6.738281 16.75 6.753906 " fill-opacity="1" fill-rule="nonzero"/><path fill="#f0e9f2" d="M 17.746094 6.347656 L 17.585938 6.917969 L 17.824219 6.988281 C 18.109375 7.070312 18.355469 6.972656 18.472656 6.574219 C 18.59375 6.164062 18.4375 5.925781 18.152344 5.839844 L 17.925781 5.773438 Z M 17 7.136719 C 16.988281 7.132812 16.980469 7.117188 16.984375 7.105469 L 17.257812 6.214844 L 17.519531 5.292969 C 17.523438 5.28125 17.535156 5.273438 17.550781 5.277344 L 18.238281 5.480469 C 18.78125 5.640625 19.1875 6.046875 18.984375 6.730469 C 18.785156 7.402344 18.238281 7.5 17.695312 7.339844 L 17 7.136719 " fill-opacity="1" fill-rule="nonzero"/><g fill="#000000" fill-opacity="1"><g transform="translate(10.227822, 9.508066)"><g><path d="M 0.265625 0.015625 C 0.234375 0.015625 0.203125 0.0078125 0.171875 0 C 0.148438 -0.0195312 0.128906 -0.0390625 0.109375 -0.0625 C 0.0976562 -0.09375 0.09375 -0.125 0.09375 -0.15625 C 0.09375 -0.175781 0.0976562 -0.195312 0.109375 -0.21875 C 0.128906 -0.25 0.148438 -0.269531 0.171875 -0.28125 C 0.203125 -0.300781 0.234375 -0.3125 0.265625 -0.3125 C 0.296875 -0.3125 0.320312 -0.300781 0.34375 -0.28125 C 0.375 -0.269531 0.394531 -0.253906 0.40625 -0.234375 C 0.425781 -0.210938 0.4375 -0.1875 0.4375 -0.15625 C 0.4375 -0.101562 0.421875 -0.0625 0.390625 -0.03125 C 0.359375 0 0.316406 0.015625 0.265625 0.015625 Z M 0.265625 0.015625 "/></g></g></g></svg>