<svg xmlns="http://www.w3.org/2000/svg" xmlns:xlink="http://www.w3.org/1999/xlink" width="40" zoomAndPan="magnify" viewBox="0 0 30 30.000001" height="40" preserveAspectRatio="xMidYMid meet" version="1.0"><defs><g/><clipPath id="296e9a8d2c"><path d="M 0.484375 0.582031 L 29.515625 0.582031 L 29.515625 28.160156 L 0.484375 28.160156 Z M 0.484375 0.582031 " clip-rule="nonzero"/></clipPath></defs><g fill="#000000" fill-opacity="1"><g transform="translate(10.227822, 9.508066)"><g><path d="M 0.265625 0.015625 C 0.234375 0.015625 0.203125 0.0078125 0.171875 0 C 0.148438 -0.0195312 0.128906 -0.0390625 0.109375 -0.0625 C 0.0976562 -0.09375 0.09375 -0.125 0.09375 -0.15625 C 0.09375 -0.175781 0.0976562 -0.195312 0.109375 -0.21875 C 0.128906 -0.25 0.148438 -0.269531 0.171875 -0.28125 C 0.203125 -0.300781 0.234375 -0.3125 0.265625 -0.3125 C 0.296875 -0.3125 0.320312 -0.300781 0.34375 -0.28125 C 0.375 -0.269531 0.394531 -0.253906 0.40625 -0.234375 C 0.425781 -0.210938 0.4375 -0.1875 0.4375 -0.15625 C 0.4375 -0.101562 0.421875 -0.0625 0.390625 -0.03125 C 0.359375 0 0.316406 0.015625 0.265625 0.015625 Z M 0.265625 0.015625 "/></g></g></g><g clip-path="url(#296e9a8d2c)"><path fill="#2479fe" d="M 15.601562 1.808594 L 18.28125 0.859375 C 19.050781 0.582031 19.910156 0.863281 20.371094 1.535156 L 21.980469 3.882812 C 22.214844 4.222656 22.558594 4.472656 22.957031 4.589844 L 25.683594 5.394531 C 26.46875 5.625 27 6.355469 26.976562 7.171875 L 26.898438 10.015625 C 26.886719 10.429688 27.019531 10.835938 27.269531 11.164062 L 29.003906 13.417969 C 29.503906 14.066406 29.503906 14.96875 29.003906 15.617188 L 27.269531 17.867188 C 27.019531 18.199219 26.886719 18.601562 26.898438 19.015625 L 26.976562 21.859375 C 27 22.675781 26.46875 23.40625 25.683594 23.636719 L 22.957031 24.441406 C 22.558594 24.558594 22.214844 24.808594 21.980469 25.152344 L 20.371094 27.496094 C 19.910156 28.171875 19.050781 28.449219 18.28125 28.175781 L 15.601562 27.222656 C 15.214844 27.085938 14.785156 27.085938 14.394531 27.222656 L 11.71875 28.175781 C 10.945312 28.449219 10.089844 28.171875 9.625 27.496094 L 8.019531 25.152344 C 7.785156 24.808594 7.441406 24.558594 7.042969 24.441406 L 4.316406 23.636719 C 3.53125 23.40625 3 22.675781 3.023438 21.859375 L 3.101562 19.015625 C 3.113281 18.601562 2.980469 18.199219 2.730469 17.867188 L 0.996094 15.617188 C 0.496094 14.96875 0.496094 14.066406 0.996094 13.417969 L 2.730469 11.164062 C 2.980469 10.835938 3.113281 10.429688 3.101562 10.015625 L 3.023438 7.171875 C 3 6.355469 3.53125 5.625 4.316406 5.394531 L 7.042969 4.589844 C 7.441406 4.472656 7.785156 4.222656 8.019531 3.882812 L 9.625 1.535156 C 10.089844 0.863281 10.945312 0.582031 11.71875 0.859375 L 14.394531 1.808594 C 14.785156 1.949219 15.214844 1.949219 15.601562 1.808594 " fill-opacity="1" fill-rule="nonzero"/></g><path fill="#ffffff" d="M 23.03125 10.28125 L 20.765625 8.015625 L 12.292969 16.484375 L 9.234375 13.429688 L 6.96875 15.695312 L 12.292969 21.019531 L 23.03125 10.28125 " fill-opacity="1" fill-rule="nonzero"/></svg>